<svg xmlns="http://www.w3.org/2000/svg" xmlns:xlink="http://www.w3.org/1999/xlink" xmlns:lucid="lucid" width="3144" height="2724.35"><g transform="translate(342 -1518)" lucid:page-tab-id="HWEp-vi-RSFO"><path d="M-500 1500h3500v3000H-500z" fill="#fff"/><path d="M-340 1532a12 12 0 0 1 12-12h3116a12 12 0 0 1 12 12v2696.35a12 12 0 0 1-12 12H-328a12 12 0 0 1-12-12z" stroke="#000" stroke-width="4" fill="#fff"/><path d="M-1.4 1600h2595v480H-1.4z" fill-opacity="0"/><path d="M12.6 1600h11.96m8 0h11.97m7.98 0h12m7.97 0h11.98m7.98 0h11.98m8 0h11.97m8 0h11.96m8 0h11.96m7.98 0h11.98m7.98 0h11.98m7.98 0h11.98m7.98 0h11.98m8 0h11.96m8 0h11.96m8 0h11.97m7.98 0h12m7.97 0h11.98m7.98 0h11.98m8 0h11.97m8 0h11.96m8 0h11.97m7.98 0h11.98m7.98 0h11.98m7.98 0h11.98m7.98 0h11.98m8 0h11.96m8 0h11.96m8 0h11.97m7.98 0h12m7.97 0h11.98m7.98 0h11.98m8 0h11.97m8 0h11.96m8 0h11.96m7.98 0h11.98m7.98 0h11.98m7.98 0h11.98m7.98 0h11.98m8 0h11.96m8 0h11.96m8 0h11.97m7.98 0h12m7.97 0h11.98m7.98 0h11.98m8 0h11.97m8 0h11.96m8 0h11.96m7.98 0h11.98m7.98 0h11.98m7.98 0h11.98m7.98 0h11.98m8 0h11.96m8 0h11.96m8 0h11.97m7.98 0h12m7.97 0h11.98m7.98 0h11.98m8 0h11.97m8 0h11.96m8 0h11.97m7.98 0h11.98m7.98 0h11.98m7.98 0h11.98m7.98 0h11.98m8 0h11.96m8 0h11.96m8 0h11.97m7.98 0h12m7.97 0h11.98m7.98 0h11.98m8 0h11.97m8 0h11.96m8 0h11.97m7.98 0h11.98m7.98 0h11.98m7.98 0h11.98m7.98 0h11.98m8 0h11.96m8 0h11.96m8 0h11.97m7.98 0h12m7.97 0h11.98m7.98 0h11.98m8 0h11.97m8 0h11.96m8 0h11.97m7.98 0h11.98m7.98 0h11.98m7.98 0h11.98m7.98 0h11.98m8 0h11.96m8 0h11.96m8 0h11.97m7.98 0h12m7.97 0h11.98m7.98 0h11.98m8 0h11.97m8 0h11.96m8 0h11.97m7.98 0h11.98m7.98 0h11.98m7.98 0h11.98m7.98 0h11.98m8 0h11.96m8 0h11.96m8 0h11.97m7.98 0h12m7.97 0h11.98m7.98 0h11.98m8 0h11.97m8 0h11.96m8 0h11.97m7.98 0h11.98m7.98 0h11.98m7.98 0h11.98m7.98 0h11.98m8 0h11.96m8 0h11.96m8 0h11.97m7.98 0h12m7.97 0h11.98m7.98 0h11.98m8 0h11.97m8 0h11.96m8 0h11.97m7.98 0h11.98m7.98 0h11.98m7.98 0h11.98m7.98 0h11.98m8 0h5.97v6m0 8v12m0 8v12m0 8v12m0 8v12m0 8v12m0 8v12m0 8v12m0 8v12m0 8v12m0 8v12m0 8v12m0 8v12m0 8v12m0 8v12m0 8v12m0 8v12m0 8v12m0 8v12m0 8v12m0 8v12m0 8v12m0 8v12m0 8v12m0 8v6h-5.97m-8 0h-11.97m-7.98 0h-11.98m-7.98 0h-11.98m-7.98 0h-11.98m-8 0h-11.96m-8 0h-11.96m-8 0h-11.97m-8 0h-11.97m-7.98 0h-11.98m-7.98 0h-12m-7.97 0h-11.98m-8 0h-11.96m-8 0h-11.97m-8 0h-11.97m-7.98 0h-11.98m-7.98 0h-11.98m-7.98 0h-11.98m-8 0h-11.96m-8 0h-11.96m-8 0h-11.97m-8 0h-11.97m-7.98 0h-11.98m-7.98 0h-12m-7.97 0h-11.98m-8 0h-11.96m-8 0h-11.97m-8 0h-11.97m-7.98 0h-11.98m-7.98 0h-11.98m-7.98 0h-11.98m-7.98 0h-11.98m-8 0h-11.96m-8 0h-11.96m-8 0h-11.97m-7.98 0h-11.98m-7.98 0h-12m-7.97 0h-11.98m-8 0h-11.96m-8 0h-11.97m-8 0h-11.97m-7.98 0h-11.98m-7.98 0h-11.98m-7.98 0h-11.98m-7.98 0h-11.98m-8 0h-11.96m-8 0h-11.96m-8 0h-11.97m-7.98 0h-11.98m-7.98 0h-12m-7.97 0h-11.98m-8 0h-11.96m-8 0h-11.97m-8 0h-11.97m-7.98 0h-11.98m-7.98 0h-11.98m-7.98 0h-11.98m-7.98 0h-11.98m-8 0h-11.96m-8 0h-11.96m-8 0h-11.97m-7.98 0h-11.98m-7.98 0h-12m-7.97 0h-11.98m-8 0h-11.96m-8 0h-11.97m-8 0h-11.97m-7.98 0h-11.98m-7.98 0h-11.98m-7.98 0h-11.98m-7.98 0h-11.98m-8 0h-11.96m-8 0h-11.96m-8 0h-11.97m-7.98 0h-11.98m-7.98 0h-12m-7.97 0h-11.98m-8 0h-11.96m-8 0h-11.97m-8 0h-11.97m-7.98 0H990.7m-7.98 0h-11.98m-7.98 0h-11.98m-8 0h-11.96m-8 0h-11.96m-8 0H890.9m-8 0h-11.97m-7.98 0h-11.98m-7.98 0h-12m-7.97 0h-11.98m-8 0H791.1m-8 0h-11.97m-8 0h-11.97m-7.98 0H731.2m-7.98 0h-11.98m-7.98 0h-11.98m-8 0h-11.96m-8 0h-11.96m-8 0H631.4m-8 0h-11.97m-7.98 0h-11.98m-7.98 0h-12m-7.97 0h-11.98m-8 0H531.6m-8 0h-11.97m-8 0h-11.97m-7.98 0H471.7m-7.98 0h-11.98m-7.98 0h-11.98m-7.98 0H411.8m-8 0h-11.96m-8 0H371.9m-8 0h-11.97m-7.98 0h-11.98m-7.98 0h-12m-7.97 0h-11.98m-8 0H272.1m-8 0h-11.97m-8 0h-11.97m-7.98 0H212.2m-7.98 0h-11.98m-7.98 0h-11.98m-8 0h-11.96m-8 0h-11.96m-8 0H112.4m-8 0H92.44m-7.98 0H72.47m-7.98 0h-12m-7.97 0H32.55m-8 0H12.6m-8 0h-6v-6m0-8v-12m0-8v-12m0-8v-12m0-8v-12m0-8v-12m0-8v-12m0-8v-12m0-8v-12m0-8v-12m0-8v-12m0-8v-12m0-8v-12m0-8v-12m0-8v-12m0-8v-12m0-8v-12m0-8v-12m0-8v-12m0-8v-12m0-8v-12m0-8v-12m0-8v-12m0-8v-12m0-8v-6h6" stroke="#000" stroke-width="4" fill="none"/><use xlink:href="#a" transform="matrix(1,0,0,1,6.614111293624774,1608) translate(1175.4505208333333 25.833333333333336)"/><use xlink:href="#b" transform="matrix(1,0,0,1,6.614111293624774,1608) translate(1331.1276041666665 25.833333333333336)"/><path d="M511.1 1798.1h242.5v234H511.1z" stroke="#000" stroke-width="2" fill="#fff"/><use xlink:href="#c" transform="matrix(1,0,0,1,519.1141112936248,1806.0902777777778) translate(61.712293836805564 117.16460503472223)"/><path d="M68.6 1798.1h242.5v234H68.6z" stroke="#000" stroke-width="2" fill="#fff"/><use xlink:href="#d" transform="matrix(1,0,0,1,76.61411129362477,1806.0902777777778) translate(68.07958984375 117.16460503472223)"/><path d="M953.6 1798.1h242.5v234H953.6z" stroke="#000" stroke-width="2" fill="#fff"/><use xlink:href="#e" transform="matrix(1,0,0,1,961.6141112936248,1806.0902777777778) translate(65.43842230902779 117.16460503472223)"/><path d="M1838.6 1798.1h242.5v234h-242.5z" stroke="#000" stroke-width="2" fill="#fff"/><use xlink:href="#f" transform="matrix(1,0,0,1,1846.6141112936248,1806.0902777777778) translate(72.79752604166667 117.16460503472223)"/><path d="M1396.1 1798.1h242.5v234h-242.5z" stroke="#000" stroke-width="2" fill="#fff"/><use xlink:href="#g" transform="matrix(1,0,0,1,1404.1141112936248,1806.0902777777778) translate(60.22184244791668 117.16460503472223)"/><path d="M2281.1 1798.1h242.5v234h-242.5z" stroke="#000" stroke-width="2" fill="#fff"/><use xlink:href="#h" transform="matrix(1,0,0,1,2289.114111293625,1806.0902777777778) translate(94.64469401041667 117.16460503472223)"/><path d="M270.67 1778.1v-9a12 12 0 0 1 12-12h780.2a12 12 0 0 1 12 12v26" stroke="#333" stroke-width="4" fill="none"/><path d="M270.67 1793.1l-7.5-13h15z" stroke="#333" stroke-width="4" fill="#333"/><path d="M1076.84 1797.1h-3.95v-2.06h3.94z" stroke="#333" stroke-width=".05" fill="#333"/><path d="M950.6 1915.1H777.36" stroke="#333" stroke-width="4" fill="none"/><path d="M952.6 1917.07h-2.04v-3.95h2.05z" stroke="#333" stroke-width=".05" fill="#333"/><path d="M761.1 1915.1l14.25-4.64v9.27z" stroke="#333" stroke-width="4" fill="#333"/><path d="M508.1 1915.1H334.86" stroke="#333" stroke-width="4" fill="none"/><path d="M510.1 1917.07h-2.04v-3.95h2.05z" stroke="#333" stroke-width=".05" fill="#333"/><path d="M318.6 1915.1l14.25-4.64v9.27z" stroke="#333" stroke-width="4" fill="#333"/><path d="M1199.1 1915.1h173.28" stroke="#333" stroke-width="4" fill="none"/><path d="M1199.16 1917.07h-2.05v-3.95h2.07z" stroke="#333" stroke-width=".05" fill="#333"/><path d="M1388.64 1915.1l-14.26 4.63v-9.28z" stroke="#333" stroke-width="4" fill="#333"/><path d="M1074.86 1795.1v-26a12 12 0 0 1 12-12h19.56m19.55 0h39.1m19.55 0h39.1m19.55 0h39.1m19.55 0h39.1m19.56 0h39.1m19.55 0h39.1m19.55 0h39.1m19.55 0h39.1m19.56 0h39.1m19.54 0h39.1m19.55 0h39.1m19.54 0h39.1m19.56 0h39.1m19.55 0H1908a12 12 0 0 1 12 12v5.25" stroke="#333" stroke-width="4" fill="none"/><path d="M1076.84 1797.1h-3.95v-2.06h3.94z" stroke="#333" stroke-width=".05" fill="#333"/><path d="M1920 1790.62l-4.63-14.27h9.27z" stroke="#333" stroke-width="4" fill="#333"/><path d="M189.86 1795.1v-24.37m0-24.37V1722a12 12 0 0 1 12-12h19.83m19.83 0h39.66m19.82 0h39.66m19.83 0h39.68m19.83 0h39.67m19.83 0h39.66m19.83 0h39.66m19.83 0h39.65m19.83 0h39.66m19.83 0h39.67m19.83 0h39.66m19.83 0h39.66m19.83 0h39.67m19.83 0h39.66m19.84 0h39.66m19.83 0h39.67m19.83 0h39.66m19.82 0h39.66m19.84 0h39.66m19.83 0h39.67m19.83 0h39.66m19.84 0h39.66m19.83 0h39.65m19.83 0h39.66m19.84 0h39.66m19.83 0h39.66m19.83 0h39.66m19.84 0h39.66m19.83 0h39.66m19.84 0H1947m19.84 0h19.83a12 12 0 0 1 12 12v17.45m0 17.45v17.45" stroke="#333" stroke-width="4" fill="none"/><path d="M191.84 1797.1h-3.95v-2.06h3.94z" stroke="#333" stroke-width=".05" fill="#333"/><path d="M1998.67 1790.62l-4.64-14.27h9.27z" stroke="#333" stroke-width="4" fill="#333"/><path d="M-1.4 1600h2595v480H-1.4z" fill-opacity="0"/><path d="M12.6 1600h11.96m8 0h11.97m7.98 0h12m7.97 0h11.98m7.98 0h11.98m8 0h11.97m8 0h11.96m8 0h11.96m7.98 0h11.98m7.98 0h11.98m7.98 0h11.98m7.98 0h11.98m8 0h11.96m8 0h11.96m8 0h11.97m7.98 0h12m7.97 0h11.98m7.98 0h11.98m8 0h11.97m8 0h11.96m8 0h11.97m7.98 0h11.98m7.98 0h11.98m7.98 0h11.98m7.98 0h11.98m8 0h11.96m8 0h11.96m8 0h11.97m7.98 0h12m7.97 0h11.98m7.98 0h11.98m8 0h11.97m8 0h11.96m8 0h11.96m7.98 0h11.98m7.98 0h11.98m7.98 0h11.98m7.98 0h11.98m8 0h11.96m8 0h11.96m8 0h11.97m7.98 0h12m7.97 0h11.98m7.98 0h11.98m8 0h11.97m8 0h11.96m8 0h11.96m7.98 0h11.98m7.98 0h11.98m7.98 0h11.98m7.98 0h11.98m8 0h11.96m8 0h11.96m8 0h11.97m7.98 0h12m7.97 0h11.98m7.98 0h11.98m8 0h11.97m8 0h11.96m8 0h11.97m7.98 0h11.98m7.98 0h11.98m7.98 0h11.98m7.98 0h11.98m8 0h11.96m8 0h11.96m8 0h11.97m7.98 0h12m7.97 0h11.98m7.98 0h11.98m8 0h11.97m8 0h11.96m8 0h11.97m7.98 0h11.98m7.98 0h11.98m7.98 0h11.98m7.98 0h11.98m8 0h11.96m8 0h11.96m8 0h11.97m7.98 0h12m7.97 0h11.98m7.98 0h11.98m8 0h11.97m8 0h11.96m8 0h11.97m7.98 0h11.98m7.98 0h11.98m7.98 0h11.98m7.98 0h11.98m8 0h11.96m8 0h11.96m8 0h11.97m7.98 0h12m7.97 0h11.98m7.98 0h11.98m8 0h11.97m8 0h11.96m8 0h11.97m7.98 0h11.98m7.98 0h11.98m7.98 0h11.98m7.98 0h11.98m8 0h11.96m8 0h11.96m8 0h11.97m7.98 0h12m7.97 0h11.98m7.98 0h11.98m8 0h11.97m8 0h11.96m8 0h11.97m7.98 0h11.98m7.98 0h11.98m7.98 0h11.98m7.98 0h11.98m8 0h11.96m8 0h11.96m8 0h11.97m7.98 0h12m7.97 0h11.98m7.98 0h11.98m8 0h11.97m8 0h11.96m8 0h11.97m7.98 0h11.98m7.98 0h11.98m7.98 0h11.98m7.98 0h11.98m8 0h5.97v6m0 8v12m0 8v12m0 8v12m0 8v12m0 8v12m0 8v12m0 8v12m0 8v12m0 8v12m0 8v12m0 8v12m0 8v12m0 8v12m0 8v12m0 8v12m0 8v12m0 8v12m0 8v12m0 8v12m0 8v12m0 8v12m0 8v12m0 8v12m0 8v6h-5.97m-8 0h-11.97m-7.98 0h-11.98m-7.98 0h-11.98m-7.98 0h-11.98m-8 0h-11.96m-8 0h-11.96m-8 0h-11.97m-8 0h-11.97m-7.98 0h-11.98m-7.98 0h-12m-7.97 0h-11.98m-8 0h-11.96m-8 0h-11.97m-8 0h-11.97m-7.98 0h-11.98m-7.98 0h-11.98m-7.98 0h-11.98m-8 0h-11.96m-8 0h-11.96m-8 0h-11.97m-8 0h-11.97m-7.98 0h-11.98m-7.98 0h-12m-7.97 0h-11.98m-8 0h-11.96m-8 0h-11.97m-8 0h-11.97m-7.98 0h-11.98m-7.98 0h-11.98m-7.98 0h-11.98m-7.98 0h-11.98m-8 0h-11.96m-8 0h-11.96m-8 0h-11.97m-7.98 0h-11.98m-7.98 0h-12m-7.97 0h-11.98m-8 0h-11.96m-8 0h-11.97m-8 0h-11.97m-7.98 0h-11.98m-7.98 0h-11.98m-7.98 0h-11.98m-7.98 0h-11.98m-8 0h-11.96m-8 0h-11.96m-8 0h-11.97m-7.98 0h-11.98m-7.98 0h-12m-7.97 0h-11.98m-8 0h-11.96m-8 0h-11.97m-8 0h-11.97m-7.98 0h-11.98m-7.98 0h-11.98m-7.98 0h-11.98m-7.98 0h-11.98m-8 0h-11.96m-8 0h-11.96m-8 0h-11.97m-7.98 0h-11.98m-7.98 0h-12m-7.97 0h-11.98m-8 0h-11.96m-8 0h-11.97m-8 0h-11.97m-7.98 0h-11.98m-7.98 0h-11.98m-7.98 0h-11.98m-7.98 0h-11.98m-8 0h-11.96m-8 0h-11.96m-8 0h-11.97m-7.98 0h-11.98m-7.98 0h-12m-7.97 0h-11.98m-8 0h-11.96m-8 0h-11.97m-8 0h-11.97m-7.98 0H990.7m-7.98 0h-11.98m-7.98 0h-11.98m-8 0h-11.96m-8 0h-11.96m-8 0H890.9m-8 0h-11.97m-7.98 0h-11.98m-7.98 0h-12m-7.97 0h-11.98m-8 0H791.1m-8 0h-11.97m-8 0h-11.97m-7.98 0H731.2m-7.98 0h-11.98m-7.98 0h-11.98m-8 0h-11.96m-8 0h-11.96m-8 0H631.4m-8 0h-11.97m-7.98 0h-11.98m-7.98 0h-12m-7.97 0h-11.98m-8 0H531.6m-8 0h-11.97m-8 0h-11.97m-7.98 0H471.7m-7.98 0h-11.98m-7.98 0h-11.98m-7.98 0H411.8m-8 0h-11.96m-8 0H371.9m-8 0h-11.97m-7.98 0h-11.98m-7.98 0h-12m-7.97 0h-11.98m-8 0H272.1m-8 0h-11.97m-8 0h-11.97m-7.98 0H212.2m-7.98 0h-11.98m-7.98 0h-11.98m-8 0h-11.96m-8 0h-11.96m-8 0H112.4m-8 0H92.44m-7.98 0H72.47m-7.98 0h-12m-7.97 0H32.55m-8 0H12.6m-8 0h-6v-6m0-8v-12m0-8v-12m0-8v-12m0-8v-12m0-8v-12m0-8v-12m0-8v-12m0-8v-12m0-8v-12m0-8v-12m0-8v-12m0-8v-12m0-8v-12m0-8v-12m0-8v-12m0-8v-12m0-8v-12m0-8v-12m0-8v-12m0-8v-12m0-8v-12m0-8v-12m0-8v-12m0-8v-6h6" stroke="#000" stroke-width="4" fill="none"/><use xlink:href="#a" transform="matrix(1,0,0,1,6.614111293624774,1608) translate(1175.4505208333333 25.833333333333336)"/><use xlink:href="#b" transform="matrix(1,0,0,1,6.614111293624774,1608) translate(1331.1276041666665 25.833333333333336)"/><path d="M511.1 1798.1h242.5v234H511.1z" stroke="#000" stroke-width="2" fill="#fff"/><use xlink:href="#c" transform="matrix(1,0,0,1,519.1141112936248,1806.0902777777778) translate(61.712293836805564 117.16460503472223)"/><path d="M68.6 1798.1h242.5v234H68.6z" stroke="#000" stroke-width="2" fill="#fff"/><use xlink:href="#d" transform="matrix(1,0,0,1,76.61411129362477,1806.0902777777778) translate(68.07958984375 117.16460503472223)"/><path d="M953.6 1798.1h242.5v234H953.6z" stroke="#000" stroke-width="2" fill="#fff"/><use xlink:href="#e" transform="matrix(1,0,0,1,961.6141112936248,1806.0902777777778) translate(65.43842230902779 117.16460503472223)"/><path d="M1838.6 1798.1h242.5v234h-242.5z" stroke="#000" stroke-width="2" fill="#fff"/><use xlink:href="#f" transform="matrix(1,0,0,1,1846.6141112936248,1806.0902777777778) translate(72.79752604166667 117.16460503472223)"/><path d="M1396.1 1798.1h242.5v234h-242.5z" stroke="#000" stroke-width="2" fill="#fff"/><use xlink:href="#g" transform="matrix(1,0,0,1,1404.1141112936248,1806.0902777777778) translate(60.22184244791668 117.16460503472223)"/><path d="M2281.1 1798.1h242.5v234h-242.5z" stroke="#000" stroke-width="2" fill="#fff"/><use xlink:href="#h" transform="matrix(1,0,0,1,2289.114111293625,1806.0902777777778) translate(94.64469401041667 117.16460503472223)"/><path d="M270.67 1778.1v-9a12 12 0 0 1 12-12h780.2a12 12 0 0 1 12 12v26" stroke="#333" stroke-width="4" fill="none"/><path d="M270.67 1793.1l-7.5-13h15z" stroke="#333" stroke-width="4" fill="#333"/><path d="M1076.84 1797.1h-3.95v-2.06h3.94z" stroke="#333" stroke-width=".05" fill="#333"/><path d="M950.6 1915.1H777.36" stroke="#333" stroke-width="4" fill="none"/><path d="M952.6 1917.07h-2.04v-3.95h2.05z" stroke="#333" stroke-width=".05" fill="#333"/><path d="M761.1 1915.1l14.25-4.64v9.27z" stroke="#333" stroke-width="4" fill="#333"/><path d="M508.1 1915.1H334.86" stroke="#333" stroke-width="4" fill="none"/><path d="M510.1 1917.07h-2.04v-3.95h2.05z" stroke="#333" stroke-width=".05" fill="#333"/><path d="M318.6 1915.1l14.25-4.64v9.27z" stroke="#333" stroke-width="4" fill="#333"/><path d="M1199.1 1915.1h173.28" stroke="#333" stroke-width="4" fill="none"/><path d="M1199.16 1917.07h-2.05v-3.95h2.07z" stroke="#333" stroke-width=".05" fill="#333"/><path d="M1388.64 1915.1l-14.26 4.63v-9.28z" stroke="#333" stroke-width="4" fill="#333"/><path d="M1074.86 1795.1v-26a12 12 0 0 1 12-12h19.56m19.55 0h39.1m19.55 0h39.1m19.55 0h39.1m19.55 0h39.1m19.56 0h39.1m19.55 0h39.1m19.55 0h39.1m19.55 0h39.1m19.56 0h39.1m19.54 0h39.1m19.55 0h39.1m19.54 0h39.1m19.56 0h39.1m19.55 0H1908a12 12 0 0 1 12 12v5.25" stroke="#333" stroke-width="4" fill="none"/><path d="M1076.84 1797.1h-3.95v-2.06h3.94z" stroke="#333" stroke-width=".05" fill="#333"/><path d="M1920 1790.62l-4.63-14.27h9.27z" stroke="#333" stroke-width="4" fill="#333"/><path d="M189.86 1795.1v-24.37m0-24.37V1722a12 12 0 0 1 12-12h19.83m19.83 0h39.66m19.82 0h39.66m19.83 0h39.68m19.83 0h39.67m19.83 0h39.66m19.83 0h39.66m19.83 0h39.65m19.83 0h39.66m19.83 0h39.67m19.83 0h39.66m19.83 0h39.66m19.83 0h39.67m19.83 0h39.66m19.84 0h39.66m19.83 0h39.67m19.83 0h39.66m19.82 0h39.66m19.84 0h39.66m19.83 0h39.67m19.83 0h39.66m19.84 0h39.66m19.83 0h39.65m19.83 0h39.66m19.84 0h39.66m19.83 0h39.66m19.83 0h39.66m19.84 0h39.66m19.83 0h39.66m19.84 0H1947m19.84 0h19.83a12 12 0 0 1 12 12v17.45m0 17.45v17.45" stroke="#333" stroke-width="4" fill="none"/><path d="M191.84 1797.1h-3.95v-2.06h3.94z" stroke="#333" stroke-width=".05" fill="#333"/><path d="M1998.67 1790.62l-4.64-14.27h9.27z" stroke="#333" stroke-width="4" fill="#333"/><path d="M370 2486.9h1807.5V2880H370z" fill-opacity="0"/><path d="M384.06 2486.9h12.05m8.04 0h12.05m8.03 0h12.04m8.04 0h12.06m8.03 0h12.04m8.04 0h12.04m8.04 0h12.05m8.04 0h12.05m8.02 0h12.05m8.04 0h12.06m8.03 0h12.04m8.03 0h12.05m8.04 0h12.05m8.04 0h12.05m8.02 0h12.05m8.04 0h12.06m8.03 0h12.04m8.03 0h12.05m8.04 0h12.05m8.04 0h12.05m8.02 0h12.05m8.04 0h12.06m8.03 0h12.04m8.03 0h12.05m8.04 0h12.05m8.04 0h12.05m8.02 0h12.05m8.04 0h12.06m8.03 0h12.04m8.03 0h12.05m8.04 0h12.05m8.04 0h12.05m8.02 0h12.06m8.03 0h12.06m8.03 0h12.04m8.03 0h12.06m8.03 0h12.05m8.04 0h12.05m8.02 0h12.06m8.03 0h12.06m8.03 0h12.04m8.03 0h12.06m8.03 0h12.05m8.04 0h12.05m8.02 0h12.06m8.03 0h12.06m8.03 0h12.04m8.03 0h12.06m8.03 0h12.05m8.04 0h12.05m8.02 0h12.06m8.03 0h12.06m8.03 0h12.04m8.03 0h12.06m8.03 0h12.05m8.04 0h12.05m8.02 0h12.06m8.03 0h12.06m8.03 0h12.04m8.03 0h12.06m8.03 0h12.05m8.04 0h12.05m8.02 0h12.06m8.03 0h12.06m8.03 0h12.04m8.03 0h12.06m8.03 0h12.05m8.04 0h12.05m8.02 0h12.06m8.03 0h12.06m8.03 0h12.04m8.03 0h12.06m8.03 0h12.05m8.04 0h12.05m8.02 0h12.06m8.03 0h12.06m8.03 0h12.04m8.03 0h12.06m8.03 0h12.05m8.04 0h12.05m8.02 0h12.06m8.03 0h12.06m8.03 0h12.04m8.03 0h12.06m8.03 0h12.05m8.04 0h12.05m8.03 0h12.05m8.03 0h12.06m8.03 0h12.04m8.03 0h6.03v5.9m0 7.87v11.8m0 7.85v11.8m0 7.86v11.8m0 7.85v11.8m0 7.86v11.78m0 7.86v11.8m0 7.86v11.8m0 7.85v11.8m0 7.85v11.8m0 7.86v11.8m0 7.85v11.8m0 7.87v11.8m0 7.85v11.8m0 7.86v11.8m0 7.85v11.8m0 7.86v11.78m0 7.86v11.8m0 7.86v11.8m0 7.85v11.8m0 7.85v5.9h-6.03m-8.03 0h-12.05m-8.04 0h-12.05m-8.03 0h-12.05m-8.03 0h-12.06m-8.03 0h-12.04m-8.03 0h-12.06m-8.03 0h-12.05m-8.04 0h-12.05m-8.02 0h-12.06m-8.03 0h-12.06m-8.03 0h-12.04m-8.03 0h-12.06m-8.03 0h-12.05m-8.04 0h-12.05m-8.02 0h-12.06m-8.03 0h-12.06m-8.03 0h-12.04m-8.03 0h-12.06m-8.03 0h-12.05m-8.04 0h-12.05m-8.02 0h-12.06m-8.03 0h-12.06m-8.03 0h-12.04m-8.03 0h-12.06m-8.03 0h-12.05m-8.04 0h-12.05m-8.02 0h-12.06m-8.03 0h-12.06m-8.03 0h-12.04m-8.03 0h-12.06m-8.03 0h-12.05m-8.04 0h-12.05m-8.02 0h-12.06m-8.03 0h-12.06m-8.03 0h-12.04m-8.03 0h-12.06m-8.03 0h-12.05m-8.04 0h-12.05m-8.02 0h-12.06m-8.03 0h-12.06m-8.03 0h-12.04m-8.03 0h-12.06m-8.03 0h-12.05m-8.04 0h-12.05m-8.02 0h-12.06m-8.03 0h-12.06m-8.03 0h-12.04m-8.03 0h-12.06m-8.03 0h-12.05m-8.04 0h-12.05m-8.02 0h-12.06m-8.03 0h-12.06m-8.03 0h-12.04m-8.03 0h-12.06m-8.03 0h-12.05m-8.04 0h-12.05m-8.02 0h-12.06m-8.03 0h-12.06m-8.03 0h-12.04m-8.03 0h-12.05m-8.04 0H946.4m-8.04 0H926.3m-8.02 0h-12.05m-8.04 0h-12.06m-8.03 0h-12.04m-8.03 0h-12.05m-8.04 0H825.9m-8.04 0H805.8m-8.02 0h-12.05m-8.04 0h-12.06m-8.03 0h-12.04m-8.03 0h-12.05m-8.04 0H705.4m-8.04 0H685.3m-8.02 0h-12.05m-8.04 0h-12.06m-8.03 0h-12.04m-8.03 0h-12.05m-8.04 0H584.9m-8.04 0H564.8m-8.02 0h-12.05m-8.04 0h-12.06m-8.03 0h-12.04m-8.04 0h-12.04m-8.04 0H464.4m-8.04 0H444.3m-8.03 0h-12.04m-8.04 0h-12.06m-8.03 0h-12.04m-8.04 0H370v-5.9m0-7.86v-11.8m0-7.85v-11.8m0-7.87v-11.8m0-7.85v-11.8m0-7.86v-11.8m0-7.85v-11.8m0-7.86v-11.78m0-7.86v-11.8m0-7.85v-11.8m0-7.85v-11.8m0-7.85v-11.8m0-7.86v-11.8m0-7.85v-11.8m0-7.87v-11.8m0-7.85v-11.8m0-7.86v-11.8m0-7.85v-11.8m0-7.86v-11.78m0-7.86v-11.8m0-7.85v-5.9h6.02" stroke="#000" stroke-width="4" fill="none"/><use xlink:href="#i" transform="matrix(1,0,0,1,378,2494.909722222222) translate(823.7604166666666 25.833333333333336)"/><use xlink:href="#b" transform="matrix(1,0,0,1,378,2494.909722222222) translate(895.8177083333333 25.833333333333336)"/><path d="M440 2551h242.5v234H440z" stroke="#000" stroke-width="2" fill="#fff"/><use xlink:href="#j" transform="matrix(1,0,0,1,448,2559) translate(83.79508463541667 117.16460503472223)"/><path d="M882.5 2551H1125v234H882.5z" stroke="#000" stroke-width="2" fill="#fff"/><use xlink:href="#k" transform="matrix(1,0,0,1,890.5,2559) translate(60.86843532986112 117.16460503472223)"/><path d="M1325 2551h242.5v234H1325z" stroke="#000" stroke-width="2" fill="#fff"/><use xlink:href="#l" transform="matrix(1,0,0,1,1333,2559) translate(67.73437500000001 117.16460503472223)"/><path d="M1767.5 2551h340v234h-340z" stroke="#000" stroke-width="2" fill="#fff"/><use xlink:href="#m" transform="matrix(1,0,0,1,1775.5,2559) translate(71.4276801215278 117.16460503472223)"/><path d="M189.86 2035.1V2418a12 12 0 0 0 12 12H466a12 12 0 0 1 12 12v85.26" stroke="#333" stroke-width="4" fill="none"/><path d="M191.84 2035.14h-3.95v-2.05h3.94z" stroke="#333" stroke-width=".05" fill="#333"/><path d="M478 2543.53l-4.63-14.27h9.26z" stroke="#333" stroke-width="4" fill="#333"/><path d="M189.86 2035.1V2418a12 12 0 0 0 12 12h789.9a12 12 0 0 1 12 12v85.26" stroke="#333" stroke-width="4" fill="none"/><path d="M191.84 2035.14h-3.95v-2.05h3.94z" stroke="#333" stroke-width=".05" fill="#333"/><path d="M1003.75 2543.53l-4.63-14.27h9.26z" stroke="#333" stroke-width="4" fill="#333"/><path d="M189.86 2035.1V2418a12 12 0 0 0 12 12h1232.4a12 12 0 0 1 12 12v85.26" stroke="#333" stroke-width="4" fill="none"/><path d="M191.84 2035.14h-3.95v-2.05h3.94z" stroke="#333" stroke-width=".05" fill="#333"/><path d="M1446.25 2543.53l-4.63-14.27h9.27z" stroke="#333" stroke-width="4" fill="#333"/><path d="M189.86 2035.1V2418a12 12 0 0 0 12 12H1925.5a12 12 0 0 1 12 12v85.26" stroke="#333" stroke-width="4" fill="none"/><path d="M191.84 2035.14h-3.95v-2.05h3.94z" stroke="#333" stroke-width=".05" fill="#333"/><path d="M1937.5 2543.53l-4.63-14.27h9.27z" stroke="#333" stroke-width="4" fill="#333"/><path d="M632 2035.1v492.15" stroke="#333" stroke-width="4" fill="none"/><path d="M633.98 2035.14H630v-2.05H634z" stroke="#333" stroke-width=".05" fill="#333"/><path d="M632 2543.53l-4.63-14.27h9.26z" stroke="#333" stroke-width="4" fill="#333"/><path d="M632.36 2035.1V2358a12 12 0 0 0 12 12H926a12 12 0 0 1 12 12v145.26" stroke="#333" stroke-width="4" fill="none"/><path d="M634.34 2035.14h-3.95v-2.05h3.94z" stroke="#333" stroke-width=".05" fill="#333"/><path d="M938 2543.53l-4.63-14.27h9.26z" stroke="#333" stroke-width="4" fill="#333"/><path d="M632.36 2035.1V2358a12 12 0 0 0 12 12h507.14a12 12 0 0 1 12 12v239.33a12 12 0 0 0 12 12h125.76" stroke="#333" stroke-width="4" fill="none"/><path d="M634.34 2035.14h-3.95v-2.05h3.94z" stroke="#333" stroke-width=".05" fill="#333"/><path d="M1317.53 2633.33l-14.27 4.64v-9.27z" stroke="#333" stroke-width="4" fill="#333"/><path d="M632.36 2035.1V2358a12 12 0 0 0 12 12h1217.9a12 12 0 0 1 12 12v145.26" stroke="#333" stroke-width="4" fill="none"/><path d="M634.34 2035.14h-3.95v-2.05h3.94z" stroke="#333" stroke-width=".05" fill="#333"/><path d="M1874.26 2543.53l-4.64-14.27h9.27z" stroke="#333" stroke-width="4" fill="#333"/><path d="M1074.86 2035.1V2308a12 12 0 0 1-12 12H540.4a12 12 0 0 0-12 12v195.26" stroke="#333" stroke-width="4" fill="none"/><path d="M1076.84 2035.14h-3.95v-2.05h3.94z" stroke="#333" stroke-width=".05" fill="#333"/><path d="M528.4 2543.53l-4.63-14.27h9.26z" stroke="#333" stroke-width="4" fill="#333"/><path d="M1074.86 2035.1v492.16" stroke="#333" stroke-width="4" fill="none"/><path d="M1076.84 2035.14h-3.95v-2.05h3.94z" stroke="#333" stroke-width=".05" fill="#333"/><path d="M1074.86 2543.53l-4.63-14.27h9.27z" stroke="#333" stroke-width="4" fill="#333"/><path d="M1074.86 2035.1V2308a12 12 0 0 0 12 12h300.68a12 12 0 0 1 12 12v195.26" stroke="#333" stroke-width="4" fill="none"/><path d="M1076.84 2035.14h-3.95v-2.05h3.94z" stroke="#333" stroke-width=".05" fill="#333"/><path d="M1399.54 2543.53l-4.64-14.27h9.27z" stroke="#333" stroke-width="4" fill="#333"/><path d="M1517.36 2035.1v218.43a12 12 0 0 1-12 12H766.6a12 12 0 0 0-12 12v309.14a12 12 0 0 1-12 12h-36.36" stroke="#333" stroke-width="4" fill="none"/><path d="M1519.34 2035.14h-3.95v-2.05h3.94z" stroke="#333" stroke-width=".05" fill="#333"/><path d="M689.97 2598.67l14.27-4.64v9.27z" stroke="#333" stroke-width="4" fill="#333"/><path d="M685.5 2629h173.26" stroke="#333" stroke-width="4" fill="none"/><path d="M685.55 2630.97h-2.05v-3.94h2.05z" stroke="#333" stroke-width=".05" fill="#333"/><path d="M875.03 2629l-14.27 4.64v-9.28z" stroke="#333" stroke-width="4" fill="#333"/><path d="M685.5 2668h26a12 12 0 0 1 12 12v138a12 12 0 0 0 12 12h416a12 12 0 0 0 12-12v-99.33a12 12 0 0 1 12-12h125.76" stroke="#333" stroke-width="4" fill="none"/><path d="M685.55 2669.97h-2.05v-3.94h2.05z" stroke="#333" stroke-width=".05" fill="#333"/><path d="M1317.53 2706.67l-14.27 4.63v-9.27z" stroke="#333" stroke-width="4" fill="#333"/><path d="M370 2486.9h1807.5V2880H370z" fill-opacity="0"/><path d="M384.06 2486.9h12.05m8.04 0h12.05m8.03 0h12.04m8.04 0h12.06m8.03 0h12.04m8.04 0h12.04m8.04 0h12.05m8.04 0h12.05m8.02 0h12.05m8.04 0h12.06m8.03 0h12.04m8.03 0h12.05m8.04 0h12.05m8.04 0h12.05m8.02 0h12.05m8.04 0h12.06m8.03 0h12.04m8.03 0h12.05m8.04 0h12.05m8.04 0h12.05m8.02 0h12.05m8.04 0h12.06m8.03 0h12.04m8.03 0h12.05m8.04 0h12.05m8.04 0h12.05m8.02 0h12.05m8.04 0h12.06m8.03 0h12.04m8.03 0h12.05m8.04 0h12.05m8.04 0h12.05m8.02 0h12.06m8.03 0h12.06m8.03 0h12.04m8.03 0h12.06m8.03 0h12.05m8.04 0h12.05m8.02 0h12.06m8.03 0h12.06m8.03 0h12.04m8.03 0h12.06m8.03 0h12.05m8.04 0h12.05m8.02 0h12.06m8.03 0h12.06m8.03 0h12.04m8.03 0h12.06m8.03 0h12.05m8.04 0h12.05m8.02 0h12.06m8.03 0h12.06m8.03 0h12.04m8.03 0h12.06m8.03 0h12.05m8.04 0h12.05m8.02 0h12.06m8.03 0h12.06m8.03 0h12.04m8.03 0h12.06m8.03 0h12.05m8.04 0h12.05m8.02 0h12.06m8.03 0h12.06m8.03 0h12.04m8.03 0h12.06m8.03 0h12.05m8.04 0h12.05m8.02 0h12.06m8.03 0h12.06m8.03 0h12.04m8.03 0h12.06m8.03 0h12.05m8.04 0h12.05m8.02 0h12.06m8.03 0h12.06m8.03 0h12.04m8.03 0h12.06m8.03 0h12.05m8.04 0h12.05m8.02 0h12.06m8.03 0h12.06m8.03 0h12.04m8.03 0h12.06m8.03 0h12.05m8.04 0h12.05m8.03 0h12.05m8.03 0h12.06m8.03 0h12.04m8.03 0h6.03v5.9m0 7.87v11.8m0 7.85v11.8m0 7.86v11.8m0 7.85v11.8m0 7.86v11.78m0 7.86v11.8m0 7.86v11.8m0 7.85v11.8m0 7.85v11.8m0 7.86v11.8m0 7.85v11.8m0 7.87v11.8m0 7.85v11.8m0 7.86v11.8m0 7.85v11.8m0 7.86v11.78m0 7.86v11.8m0 7.86v11.8m0 7.85v11.8m0 7.85v5.9h-6.03m-8.03 0h-12.05m-8.04 0h-12.05m-8.03 0h-12.05m-8.03 0h-12.06m-8.03 0h-12.04m-8.03 0h-12.06m-8.03 0h-12.05m-8.04 0h-12.05m-8.02 0h-12.06m-8.03 0h-12.06m-8.03 0h-12.04m-8.03 0h-12.06m-8.03 0h-12.05m-8.04 0h-12.05m-8.02 0h-12.06m-8.03 0h-12.06m-8.03 0h-12.04m-8.03 0h-12.06m-8.03 0h-12.05m-8.04 0h-12.05m-8.02 0h-12.06m-8.03 0h-12.06m-8.03 0h-12.04m-8.03 0h-12.06m-8.03 0h-12.05m-8.04 0h-12.05m-8.02 0h-12.06m-8.03 0h-12.06m-8.03 0h-12.04m-8.03 0h-12.06m-8.03 0h-12.05m-8.04 0h-12.05m-8.02 0h-12.06m-8.03 0h-12.06m-8.03 0h-12.04m-8.03 0h-12.06m-8.03 0h-12.05m-8.04 0h-12.05m-8.02 0h-12.06m-8.03 0h-12.06m-8.03 0h-12.04m-8.03 0h-12.06m-8.03 0h-12.05m-8.04 0h-12.05m-8.02 0h-12.06m-8.03 0h-12.06m-8.03 0h-12.04m-8.03 0h-12.06m-8.03 0h-12.05m-8.04 0h-12.05m-8.02 0h-12.06m-8.03 0h-12.06m-8.03 0h-12.04m-8.03 0h-12.06m-8.03 0h-12.05m-8.04 0h-12.05m-8.02 0h-12.06m-8.03 0h-12.06m-8.03 0h-12.04m-8.03 0h-12.05m-8.04 0H946.4m-8.04 0H926.3m-8.02 0h-12.05m-8.04 0h-12.06m-8.03 0h-12.04m-8.03 0h-12.05m-8.04 0H825.9m-8.04 0H805.8m-8.02 0h-12.05m-8.04 0h-12.06m-8.03 0h-12.04m-8.03 0h-12.05m-8.04 0H705.4m-8.04 0H685.3m-8.02 0h-12.05m-8.04 0h-12.06m-8.03 0h-12.04m-8.03 0h-12.05m-8.04 0H584.9m-8.04 0H564.8m-8.02 0h-12.05m-8.04 0h-12.06m-8.03 0h-12.04m-8.04 0h-12.04m-8.04 0H464.4m-8.04 0H444.3m-8.03 0h-12.04m-8.04 0h-12.06m-8.03 0h-12.04m-8.04 0H370v-5.9m0-7.86v-11.8m0-7.85v-11.8m0-7.87v-11.8m0-7.85v-11.8m0-7.86v-11.8m0-7.85v-11.8m0-7.86v-11.78m0-7.86v-11.8m0-7.85v-11.8m0-7.85v-11.8m0-7.85v-11.8m0-7.86v-11.8m0-7.85v-11.8m0-7.87v-11.8m0-7.85v-11.8m0-7.86v-11.8m0-7.85v-11.8m0-7.86v-11.78m0-7.86v-11.8m0-7.85v-5.9h6.02" stroke="#000" stroke-width="4" fill="none"/><use xlink:href="#i" transform="matrix(1,0,0,1,378,2494.909722222222) translate(823.7604166666666 25.833333333333336)"/><use xlink:href="#b" transform="matrix(1,0,0,1,378,2494.909722222222) translate(895.8177083333333 25.833333333333336)"/><path d="M440 2551h242.5v234H440z" stroke="#000" stroke-width="2" fill="#fff"/><use xlink:href="#j" transform="matrix(1,0,0,1,448,2559) translate(83.79508463541667 117.16460503472223)"/><path d="M882.5 2551H1125v234H882.5z" stroke="#000" stroke-width="2" fill="#fff"/><use xlink:href="#k" transform="matrix(1,0,0,1,890.5,2559) translate(60.86843532986112 117.16460503472223)"/><path d="M1325 2551h242.5v234H1325z" stroke="#000" stroke-width="2" fill="#fff"/><use xlink:href="#l" transform="matrix(1,0,0,1,1333,2559) translate(67.73437500000001 117.16460503472223)"/><path d="M1767.5 2551h340v234h-340z" stroke="#000" stroke-width="2" fill="#fff"/><use xlink:href="#m" transform="matrix(1,0,0,1,1775.5,2559) translate(71.4276801215278 117.16460503472223)"/><path d="M189.86 2035.1V2418a12 12 0 0 0 12 12H466a12 12 0 0 1 12 12v85.26" stroke="#333" stroke-width="4" fill="none"/><path d="M191.84 2035.14h-3.95v-2.05h3.94z" stroke="#333" stroke-width=".05" fill="#333"/><path d="M478 2543.53l-4.63-14.27h9.26z" stroke="#333" stroke-width="4" fill="#333"/><path d="M189.86 2035.1V2418a12 12 0 0 0 12 12h789.9a12 12 0 0 1 12 12v85.26" stroke="#333" stroke-width="4" fill="none"/><path d="M191.84 2035.14h-3.95v-2.05h3.94z" stroke="#333" stroke-width=".05" fill="#333"/><path d="M1003.75 2543.53l-4.63-14.27h9.26z" stroke="#333" stroke-width="4" fill="#333"/><path d="M189.86 2035.1V2418a12 12 0 0 0 12 12h1232.4a12 12 0 0 1 12 12v85.26" stroke="#333" stroke-width="4" fill="none"/><path d="M191.84 2035.14h-3.95v-2.05h3.94z" stroke="#333" stroke-width=".05" fill="#333"/><path d="M1446.25 2543.53l-4.63-14.27h9.27z" stroke="#333" stroke-width="4" fill="#333"/><path d="M189.86 2035.1V2418a12 12 0 0 0 12 12H1925.5a12 12 0 0 1 12 12v85.26" stroke="#333" stroke-width="4" fill="none"/><path d="M191.84 2035.14h-3.95v-2.05h3.94z" stroke="#333" stroke-width=".05" fill="#333"/><path d="M1937.5 2543.53l-4.63-14.27h9.27z" stroke="#333" stroke-width="4" fill="#333"/><path d="M632 2035.1v492.15" stroke="#333" stroke-width="4" fill="none"/><path d="M633.98 2035.14H630v-2.05H634z" stroke="#333" stroke-width=".05" fill="#333"/><path d="M632 2543.53l-4.63-14.27h9.26z" stroke="#333" stroke-width="4" fill="#333"/><path d="M632.36 2035.1V2358a12 12 0 0 0 12 12H926a12 12 0 0 1 12 12v145.26" stroke="#333" stroke-width="4" fill="none"/><path d="M634.34 2035.14h-3.95v-2.05h3.94z" stroke="#333" stroke-width=".05" fill="#333"/><path d="M938 2543.53l-4.63-14.27h9.26z" stroke="#333" stroke-width="4" fill="#333"/><path d="M632.36 2035.1V2358a12 12 0 0 0 12 12h507.14a12 12 0 0 1 12 12v239.33a12 12 0 0 0 12 12h125.76" stroke="#333" stroke-width="4" fill="none"/><path d="M634.34 2035.14h-3.95v-2.05h3.94z" stroke="#333" stroke-width=".05" fill="#333"/><path d="M1317.53 2633.33l-14.27 4.64v-9.27z" stroke="#333" stroke-width="4" fill="#333"/><path d="M632.36 2035.1V2358a12 12 0 0 0 12 12h1217.9a12 12 0 0 1 12 12v145.26" stroke="#333" stroke-width="4" fill="none"/><path d="M634.34 2035.14h-3.95v-2.05h3.94z" stroke="#333" stroke-width=".05" fill="#333"/><path d="M1874.26 2543.53l-4.64-14.27h9.27z" stroke="#333" stroke-width="4" fill="#333"/><path d="M1074.86 2035.1V2308a12 12 0 0 1-12 12H540.4a12 12 0 0 0-12 12v195.26" stroke="#333" stroke-width="4" fill="none"/><path d="M1076.84 2035.14h-3.95v-2.05h3.94z" stroke="#333" stroke-width=".05" fill="#333"/><path d="M528.4 2543.53l-4.63-14.27h9.26z" stroke="#333" stroke-width="4" fill="#333"/><path d="M1074.86 2035.1v492.16" stroke="#333" stroke-width="4" fill="none"/><path d="M1076.84 2035.14h-3.95v-2.05h3.94z" stroke="#333" stroke-width=".05" fill="#333"/><path d="M1074.86 2543.53l-4.63-14.27h9.27z" stroke="#333" stroke-width="4" fill="#333"/><path d="M1074.86 2035.1V2308a12 12 0 0 0 12 12h300.68a12 12 0 0 1 12 12v195.26" stroke="#333" stroke-width="4" fill="none"/><path d="M1076.84 2035.14h-3.95v-2.05h3.94z" stroke="#333" stroke-width=".05" fill="#333"/><path d="M1399.54 2543.53l-4.64-14.27h9.27z" stroke="#333" stroke-width="4" fill="#333"/><path d="M1517.36 2035.1v218.43a12 12 0 0 1-12 12H766.6a12 12 0 0 0-12 12v309.14a12 12 0 0 1-12 12h-36.36" stroke="#333" stroke-width="4" fill="none"/><path d="M1519.34 2035.14h-3.95v-2.05h3.94z" stroke="#333" stroke-width=".05" fill="#333"/><path d="M689.97 2598.67l14.27-4.64v9.27z" stroke="#333" stroke-width="4" fill="#333"/><path d="M685.5 2629h173.26" stroke="#333" stroke-width="4" fill="none"/><path d="M685.55 2630.97h-2.05v-3.94h2.05z" stroke="#333" stroke-width=".05" fill="#333"/><path d="M875.03 2629l-14.27 4.64v-9.28z" stroke="#333" stroke-width="4" fill="#333"/><path d="M685.5 2668h26a12 12 0 0 1 12 12v138a12 12 0 0 0 12 12h416a12 12 0 0 0 12-12v-99.33a12 12 0 0 1 12-12h125.76" stroke="#333" stroke-width="4" fill="none"/><path d="M685.55 2669.97h-2.05v-3.94h2.05z" stroke="#333" stroke-width=".05" fill="#333"/><path d="M1317.53 2706.67l-14.27 4.63v-9.27z" stroke="#333" stroke-width="4" fill="#333"/><path d="M650 3213.82h1271.5v393.1H650z" fill-opacity="0"/><path d="M663.9 3213.82h11.93m7.94 0h11.93m7.94 0h11.92m7.95 0h11.93m7.95 0h11.92m7.94 0h11.92m7.95 0h11.93m7.95 0h11.92m7.95 0h11.9m7.96 0h11.93m7.95 0h11.92m7.95 0h11.92m7.94 0h11.93m7.95 0h11.92m7.95 0h11.92m7.94 0h11.94m7.94 0h11.92m7.95 0h11.92m7.95 0h11.92m7.94 0h11.92m7.95 0h11.92m7.95 0h11.92m7.94 0h11.92m7.95 0h11.92m7.95 0h11.92m7.95 0h11.9m7.95 0h11.92m7.95 0h11.92m7.95 0h11.9m7.96 0h11.92m7.94 0h11.92m7.95 0h11.9m7.96 0h11.92m7.94 0h11.92m7.95 0h11.9m7.96 0h11.92m7.95 0h11.92m7.94 0h11.9m7.96 0h11.92m7.95 0h11.92m7.94 0h11.92m7.94 0h11.92m7.95 0h11.92m7.95 0h11.92m7.94 0h11.92m7.95 0h11.92m7.95 0h11.92m7.94 0h11.92m7.95 0h11.92m7.95 0h11.92m7.95 0h11.92m7.93 0h11.92m7.95 0h11.92m7.95 0h11.92m7.93 0h11.92m7.95 0h11.92m7.95 0h11.92m7.94 0h11.92m7.94 0h11.92m7.95 0H1848m7.94 0h11.92m7.95 0h11.93m7.94 0h11.92m7.94 0h5.96v5.9m0 7.86v11.8m0 7.85v11.8m0 7.86v11.78m0 7.86v11.8m0 7.86v11.8m0 7.85v11.8m0 7.86v11.8m0 7.86v11.8m0 7.85v11.8m0 7.87v11.8m0 7.85v11.8m0 7.86v11.8m0 7.85v11.8m0 7.86v11.78m0 7.86v11.8m0 7.86v11.8m0 7.85v11.8m0 7.85v11.8m0 7.86v11.8m0 7.85v5.9h-5.96m-7.95 0h-11.93m-7.94 0h-11.92m-7.94 0h-11.92m-7.95 0h-11.93m-7.95 0h-11.92m-7.94 0h-11.92m-7.95 0h-11.93m-7.95 0h-11.92m-7.94 0h-11.93m-7.94 0h-11.93m-7.95 0H1697m-7.95 0h-11.92m-7.94 0h-11.93m-7.95 0h-11.92m-7.95 0h-11.92m-7.94 0h-11.93m-7.95 0h-11.92m-7.95 0h-11.92m-7.95 0h-11.92m-7.94 0h-11.92m-7.95 0h-11.92m-7.95 0h-11.92m-7.94 0h-11.92m-7.95 0h-11.92m-7.95 0h-11.92m-7.95 0H1399m-7.95 0h-11.92m-7.95 0h-11.92m-7.95 0h-11.9m-7.96 0h-11.92m-7.94 0h-11.92m-7.95 0h-11.9m-7.96 0h-11.92m-7.94 0h-11.92m-7.95 0h-11.9m-7.96 0h-11.92m-7.95 0h-11.92m-7.94 0h-11.9m-7.96 0h-11.92m-7.95 0h-11.92m-7.94 0h-11.92m-7.94 0h-11.92m-7.95 0h-11.92m-7.95 0h-11.92m-7.94 0h-11.92m-7.95 0h-11.92m-7.95 0h-11.92m-7.94 0H961.9m-7.93 0h-11.92m-7.95 0h-11.92m-7.95 0H902.3m-7.93 0h-11.92m-7.95 0h-11.92m-7.95 0H842.7m-7.94 0h-11.9m-7.96 0h-11.92m-7.95 0H783.1m-7.94 0h-11.92m-7.94 0h-11.92m-7.95 0H723.5m-7.94 0h-11.92m-7.94 0h-11.93m-7.94 0H663.9m-7.94 0H650v-5.9m0-7.85v-11.8m0-7.85v-11.8m0-7.86v-11.8m0-7.85v-11.8m0-7.87v-11.8m0-7.85v-11.8m0-7.86v-11.8m0-7.85v-11.8m0-7.86v-11.78m0-7.86v-11.8m0-7.85v-11.8m0-7.85v-11.8m0-7.85v-11.8m0-7.86v-11.8m0-7.85v-11.8m0-7.87v-11.8m0-7.85v-11.8m0-7.86v-11.8m0-7.85v-11.8m0-7.85v-5.9h5.96" stroke="#000" stroke-width="4" fill="none"/><use xlink:href="#n" transform="matrix(1,0,0,1,658,3221.8194444444443) translate(536.0403645833334 25.833333333333336)"/><use xlink:href="#b" transform="matrix(1,0,0,1,658,3221.8194444444443) translate(647.5377604166667 25.833333333333336)"/><path d="M1607 3285.65h242.5v234H1607z" stroke="#000" stroke-width="2" fill="#fff"/><use xlink:href="#o" transform="matrix(1,0,0,1,1615,3293.652777777778) translate(76.63872612847223 117.16460503472223)"/><path d="M1164.5 3285.65H1407v234h-242.5z" stroke="#000" stroke-width="2" fill="#fff"/><use xlink:href="#p" transform="matrix(1,0,0,1,1172.5,3293.652777777778) translate(87.9650607638889 117.16460503472223)"/><path d="M722 3285.65h242.5v234H722z" stroke="#000" stroke-width="2" fill="#fff"/><use xlink:href="#q" transform="matrix(1,0,0,1,730,3293.652777777778) translate(93.181640625 117.16460503472223)"/><path d="M189.86 2035.1v1075.76a12 12 0 0 0 12 12H1625.6a12 12 0 0 1 12 12v127.05" stroke="#333" stroke-width="4" fill="none"/><path d="M191.84 2035.14h-3.95v-2.05h3.94z" stroke="#333" stroke-width=".05" fill="#333"/><path d="M1637.6 3278.18l-4.63-14.26h9.26z" stroke="#333" stroke-width="4" fill="#333"/><path d="M189.86 2035.1V3353.3a12 12 0 0 0 12 12h496.4" stroke="#333" stroke-width="4" fill="none"/><path d="M191.84 2035.14h-3.95v-2.05h3.94z" stroke="#333" stroke-width=".05" fill="#333"/><path d="M714.53 3365.32l-14.27 4.63v-9.27z" stroke="#333" stroke-width="4" fill="#333"/><path d="M189.86 2035.1v1075.76a12 12 0 0 0 12 12h909.64a12 12 0 0 1 12 12v161.94a12 12 0 0 0 12 12h5.26" stroke="#333" stroke-width="4" fill="none"/><path d="M191.84 2035.14h-3.95v-2.05h3.94z" stroke="#333" stroke-width=".05" fill="#333"/><path d="M1157.03 3308.8l-14.27 4.63v-9.26z" stroke="#333" stroke-width="4" fill="#333"/><path d="M632.36 2035.1V2358a12 12 0 0 0 12 12H2238a12 12 0 0 1 12 12v942a12 12 0 0 1-12 12h-364.76" stroke="#333" stroke-width="4" fill="none"/><path d="M634.34 2035.14h-3.95v-2.05h3.94z" stroke="#333" stroke-width=".05" fill="#333"/><path d="M1856.97 3336l14.27-4.64v9.28z" stroke="#333" stroke-width="4" fill="#333"/><path d="M632.36 2035.1V2358a12 12 0 0 0 12 12h186.9a12 12 0 0 1 12 12v879.9" stroke="#333" stroke-width="4" fill="none"/><path d="M634.34 2035.14h-3.95v-2.05h3.94z" stroke="#333" stroke-width=".05" fill="#333"/><path d="M843.25 3278.18l-4.63-14.26h9.26z" stroke="#333" stroke-width="4" fill="#333"/><path d="M632.36 2035.1V2358a12 12 0 0 0 12 12H2238a12 12 0 0 1 12 12v686a12 12 0 0 1-12 12h-778a12 12 0 0 0-12 12v298.65a12 12 0 0 1-12 12h-5.26" stroke="#333" stroke-width="4" fill="none"/><path d="M634.34 2035.14h-3.95v-2.05h3.94z" stroke="#333" stroke-width=".05" fill="#333"/><path d="M1414.47 3402.65l14.27-4.63v9.27z" stroke="#333" stroke-width="4" fill="#333"/><path d="M1074.86 2035.1V2308a12 12 0 0 0 12 12H2318a12 12 0 0 1 12 12v1058.65a12 12 0 0 1-12 12h-444.76" stroke="#333" stroke-width="4" fill="none"/><path d="M1076.84 2035.14h-3.95v-2.05h3.94z" stroke="#333" stroke-width=".05" fill="#333"/><path d="M1856.97 3402.65l14.27-4.63v9.27z" stroke="#333" stroke-width="4" fill="#333"/><path d="M1074.86 2035.1V2308a12 12 0 0 1-12 12H272a12 12 0 0 0-12 12v971.82a12 12 0 0 0 12 12h426.26" stroke="#333" stroke-width="4" fill="none"/><path d="M1076.84 2035.14h-3.95v-2.05h3.94z" stroke="#333" stroke-width=".05" fill="#333"/><path d="M714.53 3315.82l-14.27 4.63v-9.27z" stroke="#333" stroke-width="4" fill="#333"/><path d="M1517.36 2035.1v218.43a12 12 0 0 1-12 12H132a12 12 0 0 0-12 12v1130.8a12 12 0 0 0 12 12h566.26" stroke="#333" stroke-width="4" fill="none"/><path d="M1519.34 2035.14h-3.95v-2.05h3.94z" stroke="#333" stroke-width=".05" fill="#333"/><path d="M714.53 3420.32l-14.27 4.63v-9.27z" stroke="#333" stroke-width="4" fill="#333"/><path d="M1959.86 2035.1V2198a12 12 0 0 1-12 12H72a12 12 0 0 0-12 12v1235.32a12 12 0 0 0 12 12h626.26" stroke="#333" stroke-width="4" fill="none"/><path d="M1961.84 2035.14h-3.95v-2.05h3.94z" stroke="#333" stroke-width=".05" fill="#333"/><path d="M714.53 3469.32l-14.27 4.63v-9.27z" stroke="#333" stroke-width="4" fill="#333"/><path d="M561.25 2788v247.63a12 12 0 0 0 12 12H1680.8a12 12 0 0 1 12 12v202.28" stroke="#333" stroke-width="4" fill="none"/><path d="M563.23 2788.05h-3.96V2786h3.96z" stroke="#333" stroke-width=".05" fill="#333"/><path d="M1692.8 3278.18l-4.63-14.26h9.26z" stroke="#333" stroke-width="4" fill="#333"/><path d="M561.25 2788v247.63a12 12 0 0 0 12 12H764a12 12 0 0 1 12 12v202.28" stroke="#333" stroke-width="4" fill="none"/><path d="M563.23 2788.05h-3.96V2786h3.96z" stroke="#333" stroke-width=".05" fill="#333"/><path d="M776 3278.18l-4.63-14.26h9.26z" stroke="#333" stroke-width="4" fill="#333"/><path d="M561.25 2788v247.63a12 12 0 0 0 12 12h489.6a12 12 0 0 1 12 12v290.77a12 12 0 0 0 12 12h53.9" stroke="#333" stroke-width="4" fill="none"/><path d="M563.23 2788.05h-3.96V2786h3.96z" stroke="#333" stroke-width=".05" fill="#333"/><path d="M1157.03 3362.4l-14.27 4.63v-9.27z" stroke="#333" stroke-width="4" fill="#333"/><path d="M1003.75 2788v210a12 12 0 0 0 12 12h727.45a12 12 0 0 1 12 12v239.9" stroke="#333" stroke-width="4" fill="none"/><path d="M1005.73 2788.05h-3.96V2786h3.96z" stroke="#333" stroke-width=".05" fill="#333"/><path d="M1755.2 3278.18l-4.63-14.26h9.27z" stroke="#333" stroke-width="4" fill="#333"/><path d="M1003.75 2788v539.5a12 12 0 0 1-12 12h-3.5" stroke="#333" stroke-width="4" fill="none"/><path d="M1005.73 2788.05h-3.96V2786h3.96z" stroke="#333" stroke-width=".05" fill="#333"/><path d="M971.97 3339.5l14.27-4.64v9.28z" stroke="#333" stroke-width="4" fill="#333"/><path d="M1446.25 2788v180a12 12 0 0 0 12 12h344.15a12 12 0 0 1 12 12v269.9" stroke="#333" stroke-width="4" fill="none"/><path d="M1448.22 2788.05h-3.94V2786h3.94z" stroke="#333" stroke-width=".05" fill="#333"/><path d="M1814.4 3278.18l-4.63-14.26h9.27z" stroke="#333" stroke-width="4" fill="#333"/><path d="M1446.25 2788v180a12 12 0 0 1-12 12H923.2a12 12 0 0 0-12 12v269.9" stroke="#333" stroke-width="4" fill="none"/><path d="M1448.22 2788.05h-3.94V2786h3.94z" stroke="#333" stroke-width=".05" fill="#333"/><path d="M911.2 3278.18l-4.63-14.26h9.26z" stroke="#333" stroke-width="4" fill="#333"/><path d="M1937.5 2788v26a12 12 0 0 0 12 12h38.5a12 12 0 0 1 12 12v820a12 12 0 0 1-12 12h-956a12 12 0 0 1-12-12v-169.5a12 12 0 0 0-12-12h-19.76" stroke="#333" stroke-width="4" fill="none"/><path d="M1939.47 2788.05h-3.94V2786h3.94z" stroke="#333" stroke-width=".05" fill="#333"/><path d="M971.97 3476.5l14.27-4.64v9.28z" stroke="#333" stroke-width="4" fill="#333"/><path d="M1604 3402.65h-26a12 12 0 0 0-12 12V3548a12 12 0 0 1-12 12h-462a12 12 0 0 1-12-12v-94.4a12 12 0 0 0-12-12h-79.76" stroke="#333" stroke-width="4" fill="none"/><path d="M1606 3404.63h-2.05v-3.95h2.05z" stroke="#333" stroke-width=".05" fill="#333"/><path d="M971.97 3441.6l14.27-4.63v9.27z" stroke="#333" stroke-width="4" fill="#333"/><path d="M1161.5 3402.65H988.24" stroke="#333" stroke-width="4" fill="none"/><path d="M1163.5 3404.63h-2.05v-3.95h2.05z" stroke="#333" stroke-width=".05" fill="#333"/><path d="M971.97 3402.65l14.27-4.63v9.27z" stroke="#333" stroke-width="4" fill="#333"/><path d="M2402.36 2035.1v1422.5a12 12 0 0 1-12 12h-517.12" stroke="#333" stroke-width="4" fill="none"/><path d="M2404.34 2035.14h-3.95v-2.05h3.94z" stroke="#333" stroke-width=".05" fill="#333"/><path d="M1856.97 3469.6l14.27-4.63v9.27z" stroke="#333" stroke-width="4" fill="#333"/><path d="M650 3213.82h1271.5v393.1H650z" fill-opacity="0"/><path d="M663.9 3213.82h11.93m7.94 0h11.93m7.94 0h11.92m7.95 0h11.93m7.95 0h11.92m7.94 0h11.92m7.95 0h11.93m7.95 0h11.92m7.95 0h11.9m7.96 0h11.93m7.95 0h11.92m7.95 0h11.92m7.94 0h11.93m7.95 0h11.92m7.95 0h11.92m7.94 0h11.94m7.94 0h11.92m7.95 0h11.92m7.95 0h11.92m7.94 0h11.92m7.95 0h11.92m7.95 0h11.92m7.94 0h11.92m7.95 0h11.92m7.95 0h11.92m7.95 0h11.9m7.95 0h11.92m7.95 0h11.92m7.95 0h11.9m7.96 0h11.92m7.94 0h11.92m7.95 0h11.9m7.96 0h11.92m7.94 0h11.92m7.95 0h11.9m7.96 0h11.92m7.95 0h11.92m7.94 0h11.9m7.96 0h11.92m7.95 0h11.92m7.94 0h11.92m7.94 0h11.92m7.95 0h11.92m7.95 0h11.92m7.94 0h11.92m7.95 0h11.92m7.95 0h11.92m7.94 0h11.92m7.95 0h11.92m7.95 0h11.92m7.95 0h11.92m7.93 0h11.92m7.95 0h11.92m7.95 0h11.92m7.93 0h11.92m7.95 0h11.92m7.95 0h11.92m7.94 0h11.92m7.94 0h11.92m7.95 0H1848m7.94 0h11.92m7.95 0h11.93m7.94 0h11.92m7.94 0h5.96v5.9m0 7.86v11.8m0 7.85v11.8m0 7.86v11.78m0 7.86v11.8m0 7.86v11.8m0 7.85v11.8m0 7.86v11.8m0 7.86v11.8m0 7.85v11.8m0 7.87v11.8m0 7.85v11.8m0 7.86v11.8m0 7.85v11.8m0 7.86v11.78m0 7.86v11.8m0 7.86v11.8m0 7.85v11.8m0 7.85v11.8m0 7.86v11.8m0 7.85v5.9h-5.96m-7.95 0h-11.93m-7.94 0h-11.92m-7.94 0h-11.92m-7.95 0h-11.93m-7.95 0h-11.92m-7.94 0h-11.92m-7.95 0h-11.93m-7.95 0h-11.92m-7.94 0h-11.93m-7.94 0h-11.93m-7.95 0H1697m-7.95 0h-11.92m-7.94 0h-11.93m-7.95 0h-11.92m-7.95 0h-11.92m-7.94 0h-11.93m-7.95 0h-11.92m-7.95 0h-11.92m-7.95 0h-11.92m-7.94 0h-11.92m-7.95 0h-11.92m-7.95 0h-11.92m-7.94 0h-11.92m-7.95 0h-11.92m-7.95 0h-11.92m-7.95 0H1399m-7.95 0h-11.92m-7.95 0h-11.92m-7.95 0h-11.9m-7.96 0h-11.92m-7.94 0h-11.92m-7.95 0h-11.9m-7.96 0h-11.92m-7.94 0h-11.92m-7.95 0h-11.9m-7.96 0h-11.92m-7.95 0h-11.92m-7.94 0h-11.9m-7.96 0h-11.92m-7.95 0h-11.92m-7.94 0h-11.92m-7.94 0h-11.92m-7.95 0h-11.92m-7.95 0h-11.92m-7.94 0h-11.92m-7.95 0h-11.92m-7.95 0h-11.92m-7.94 0H961.9m-7.93 0h-11.92m-7.95 0h-11.92m-7.95 0H902.3m-7.93 0h-11.92m-7.95 0h-11.92m-7.95 0H842.7m-7.94 0h-11.9m-7.96 0h-11.92m-7.95 0H783.1m-7.94 0h-11.92m-7.94 0h-11.92m-7.95 0H723.5m-7.94 0h-11.92m-7.94 0h-11.93m-7.94 0H663.9m-7.94 0H650v-5.9m0-7.85v-11.8m0-7.85v-11.8m0-7.86v-11.8m0-7.85v-11.8m0-7.87v-11.8m0-7.85v-11.8m0-7.86v-11.8m0-7.85v-11.8m0-7.86v-11.78m0-7.86v-11.8m0-7.85v-11.8m0-7.85v-11.8m0-7.85v-11.8m0-7.86v-11.8m0-7.85v-11.8m0-7.87v-11.8m0-7.85v-11.8m0-7.86v-11.8m0-7.85v-11.8m0-7.85v-5.9h5.96" stroke="#000" stroke-width="4" fill="none"/><use xlink:href="#n" transform="matrix(1,0,0,1,658,3221.8194444444443) translate(536.0403645833334 25.833333333333336)"/><use xlink:href="#b" transform="matrix(1,0,0,1,658,3221.8194444444443) translate(647.5377604166667 25.833333333333336)"/><path d="M1607 3285.65h242.5v234H1607z" stroke="#000" stroke-width="2" fill="#fff"/><use xlink:href="#o" transform="matrix(1,0,0,1,1615,3293.652777777778) translate(76.63872612847223 117.16460503472223)"/><path d="M1164.5 3285.65H1407v234h-242.5z" stroke="#000" stroke-width="2" fill="#fff"/><use xlink:href="#p" transform="matrix(1,0,0,1,1172.5,3293.652777777778) translate(87.9650607638889 117.16460503472223)"/><path d="M722 3285.65h242.5v234H722z" stroke="#000" stroke-width="2" fill="#fff"/><use xlink:href="#q" transform="matrix(1,0,0,1,730,3293.652777777778) translate(93.181640625 117.16460503472223)"/><path d="M189.86 2035.1v1075.76a12 12 0 0 0 12 12H1625.6a12 12 0 0 1 12 12v127.05" stroke="#333" stroke-width="4" fill="none"/><path d="M191.84 2035.14h-3.95v-2.05h3.94z" stroke="#333" stroke-width=".05" fill="#333"/><path d="M1637.6 3278.18l-4.63-14.26h9.26z" stroke="#333" stroke-width="4" fill="#333"/><path d="M189.86 2035.1V3353.3a12 12 0 0 0 12 12h496.4" stroke="#333" stroke-width="4" fill="none"/><path d="M191.84 2035.14h-3.95v-2.05h3.94z" stroke="#333" stroke-width=".05" fill="#333"/><path d="M714.53 3365.32l-14.27 4.63v-9.27z" stroke="#333" stroke-width="4" fill="#333"/><path d="M189.86 2035.1v1075.76a12 12 0 0 0 12 12h909.64a12 12 0 0 1 12 12v161.94a12 12 0 0 0 12 12h5.26" stroke="#333" stroke-width="4" fill="none"/><path d="M191.84 2035.14h-3.95v-2.05h3.94z" stroke="#333" stroke-width=".05" fill="#333"/><path d="M1157.03 3308.8l-14.27 4.63v-9.26z" stroke="#333" stroke-width="4" fill="#333"/><path d="M632.36 2035.1V2358a12 12 0 0 0 12 12H2238a12 12 0 0 1 12 12v942a12 12 0 0 1-12 12h-364.76" stroke="#333" stroke-width="4" fill="none"/><path d="M634.34 2035.14h-3.95v-2.05h3.94z" stroke="#333" stroke-width=".05" fill="#333"/><path d="M1856.97 3336l14.27-4.64v9.28z" stroke="#333" stroke-width="4" fill="#333"/><path d="M632.36 2035.1V2358a12 12 0 0 0 12 12h186.9a12 12 0 0 1 12 12v879.9" stroke="#333" stroke-width="4" fill="none"/><path d="M634.34 2035.14h-3.95v-2.05h3.94z" stroke="#333" stroke-width=".05" fill="#333"/><path d="M843.25 3278.18l-4.63-14.26h9.26z" stroke="#333" stroke-width="4" fill="#333"/><path d="M632.36 2035.1V2358a12 12 0 0 0 12 12H2238a12 12 0 0 1 12 12v686a12 12 0 0 1-12 12h-778a12 12 0 0 0-12 12v298.65a12 12 0 0 1-12 12h-5.26" stroke="#333" stroke-width="4" fill="none"/><path d="M634.34 2035.14h-3.95v-2.05h3.94z" stroke="#333" stroke-width=".05" fill="#333"/><path d="M1414.47 3402.65l14.27-4.63v9.27z" stroke="#333" stroke-width="4" fill="#333"/><path d="M1074.86 2035.1V2308a12 12 0 0 0 12 12H2318a12 12 0 0 1 12 12v1058.65a12 12 0 0 1-12 12h-444.76" stroke="#333" stroke-width="4" fill="none"/><path d="M1076.84 2035.14h-3.95v-2.05h3.94z" stroke="#333" stroke-width=".05" fill="#333"/><path d="M1856.97 3402.65l14.27-4.63v9.27z" stroke="#333" stroke-width="4" fill="#333"/><path d="M1074.86 2035.1V2308a12 12 0 0 1-12 12H272a12 12 0 0 0-12 12v971.82a12 12 0 0 0 12 12h426.26" stroke="#333" stroke-width="4" fill="none"/><path d="M1076.84 2035.14h-3.95v-2.05h3.94z" stroke="#333" stroke-width=".05" fill="#333"/><path d="M714.53 3315.82l-14.27 4.63v-9.27z" stroke="#333" stroke-width="4" fill="#333"/><path d="M1517.36 2035.1v218.43a12 12 0 0 1-12 12H132a12 12 0 0 0-12 12v1130.8a12 12 0 0 0 12 12h566.26" stroke="#333" stroke-width="4" fill="none"/><path d="M1519.34 2035.14h-3.95v-2.05h3.94z" stroke="#333" stroke-width=".05" fill="#333"/><path d="M714.53 3420.32l-14.27 4.63v-9.27z" stroke="#333" stroke-width="4" fill="#333"/><path d="M1959.86 2035.1V2198a12 12 0 0 1-12 12H72a12 12 0 0 0-12 12v1235.32a12 12 0 0 0 12 12h626.26" stroke="#333" stroke-width="4" fill="none"/><path d="M1961.84 2035.14h-3.95v-2.05h3.94z" stroke="#333" stroke-width=".05" fill="#333"/><path d="M714.53 3469.32l-14.27 4.63v-9.27z" stroke="#333" stroke-width="4" fill="#333"/><path d="M561.25 2788v247.63a12 12 0 0 0 12 12H1680.8a12 12 0 0 1 12 12v202.28" stroke="#333" stroke-width="4" fill="none"/><path d="M563.23 2788.05h-3.96V2786h3.96z" stroke="#333" stroke-width=".05" fill="#333"/><path d="M1692.8 3278.18l-4.63-14.26h9.26z" stroke="#333" stroke-width="4" fill="#333"/><path d="M561.25 2788v247.63a12 12 0 0 0 12 12H764a12 12 0 0 1 12 12v202.28" stroke="#333" stroke-width="4" fill="none"/><path d="M563.23 2788.05h-3.96V2786h3.96z" stroke="#333" stroke-width=".05" fill="#333"/><path d="M776 3278.18l-4.63-14.26h9.26z" stroke="#333" stroke-width="4" fill="#333"/><path d="M561.25 2788v247.63a12 12 0 0 0 12 12h489.6a12 12 0 0 1 12 12v290.77a12 12 0 0 0 12 12h53.9" stroke="#333" stroke-width="4" fill="none"/><path d="M563.23 2788.05h-3.96V2786h3.96z" stroke="#333" stroke-width=".05" fill="#333"/><path d="M1157.03 3362.4l-14.27 4.63v-9.27z" stroke="#333" stroke-width="4" fill="#333"/><path d="M1003.75 2788v210a12 12 0 0 0 12 12h727.45a12 12 0 0 1 12 12v239.9" stroke="#333" stroke-width="4" fill="none"/><path d="M1005.73 2788.05h-3.96V2786h3.96z" stroke="#333" stroke-width=".05" fill="#333"/><path d="M1755.2 3278.18l-4.63-14.26h9.27z" stroke="#333" stroke-width="4" fill="#333"/><path d="M1003.75 2788v539.5a12 12 0 0 1-12 12h-3.5" stroke="#333" stroke-width="4" fill="none"/><path d="M1005.73 2788.05h-3.96V2786h3.96z" stroke="#333" stroke-width=".05" fill="#333"/><path d="M971.97 3339.5l14.27-4.64v9.28z" stroke="#333" stroke-width="4" fill="#333"/><path d="M1446.25 2788v180a12 12 0 0 0 12 12h344.15a12 12 0 0 1 12 12v269.9" stroke="#333" stroke-width="4" fill="none"/><path d="M1448.22 2788.05h-3.94V2786h3.94z" stroke="#333" stroke-width=".05" fill="#333"/><path d="M1814.4 3278.18l-4.63-14.26h9.27z" stroke="#333" stroke-width="4" fill="#333"/><path d="M1446.25 2788v180a12 12 0 0 1-12 12H923.2a12 12 0 0 0-12 12v269.9" stroke="#333" stroke-width="4" fill="none"/><path d="M1448.22 2788.05h-3.94V2786h3.94z" stroke="#333" stroke-width=".05" fill="#333"/><path d="M911.2 3278.18l-4.63-14.26h9.26z" stroke="#333" stroke-width="4" fill="#333"/><path d="M1937.5 2788v26a12 12 0 0 0 12 12h38.5a12 12 0 0 1 12 12v820a12 12 0 0 1-12 12h-956a12 12 0 0 1-12-12v-169.5a12 12 0 0 0-12-12h-19.76" stroke="#333" stroke-width="4" fill="none"/><path d="M1939.47 2788.05h-3.94V2786h3.94z" stroke="#333" stroke-width=".05" fill="#333"/><path d="M971.97 3476.5l14.27-4.64v9.28z" stroke="#333" stroke-width="4" fill="#333"/><path d="M1604 3402.65h-26a12 12 0 0 0-12 12V3548a12 12 0 0 1-12 12h-462a12 12 0 0 1-12-12v-94.4a12 12 0 0 0-12-12h-79.76" stroke="#333" stroke-width="4" fill="none"/><path d="M1606 3404.63h-2.05v-3.95h2.05z" stroke="#333" stroke-width=".05" fill="#333"/><path d="M971.97 3441.6l14.27-4.63v9.27z" stroke="#333" stroke-width="4" fill="#333"/><path d="M1161.5 3402.65H988.24" stroke="#333" stroke-width="4" fill="none"/><path d="M1163.5 3404.63h-2.05v-3.95h2.05z" stroke="#333" stroke-width=".05" fill="#333"/><path d="M971.97 3402.65l14.27-4.63v9.27z" stroke="#333" stroke-width="4" fill="#333"/><path d="M2402.36 2035.1v1422.5a12 12 0 0 1-12 12h-517.12" stroke="#333" stroke-width="4" fill="none"/><path d="M2404.34 2035.14h-3.95v-2.05h3.94z" stroke="#333" stroke-width=".05" fill="#333"/><path d="M1856.97 3469.6l14.27-4.63v9.27z" stroke="#333" stroke-width="4" fill="#333"/><path d="M933.6 3840h705v320.35h-705z" fill-opacity="0"/><path d="M947.7 3840h12.1m8.06 0h12.08m8.06 0h12.1m8.04 0h12.1m8.05 0h12.07m8.06 0h12.08m8.07 0h12.1m8.04 0h12.1m8.06 0h12.08m8.06 0h12.1m8.04 0h12.1m8.05 0h12.07m8.06 0h12.08m8.07 0h12.1m8.04 0h12.1m8.06 0h12.08m8.06 0h12.1m8.04 0h12.1m8.05 0h12.07m8.06 0h12.08m8.07 0h12.1m8.04 0h12.1m8.06 0h12.08m8.06 0h12.1m8.04 0h12.1m8.05 0h12.07m8.06 0h12.08m8.07 0h12.1m8.04 0h12.1m8.06 0h12.08m8.06 0h12.1m8.04 0h12.1m8.05 0h12.07m8.06 0h12.08m8.07 0h6.04v6m0 8v12.03m0 8v12.02m0 8v12.02m0 8v12.02m0 8v12m0 8.02v12.02m0 8v12.02m0 8v12.02m0 8v12.02m0 8v12.02m0 8v12.03m0 8v12.02m0 8v12.02m0 8v12m0 8.02v12m0 8.02v6h-6.03m-8.06 0h-12.07m-8.06 0h-12.08m-8.07 0h-12.1m-8.04 0H1552m-8.06 0h-12.08m-8.06 0h-12.1m-8.04 0h-12.1m-8.05 0h-12.07m-8.06 0h-12.08m-8.07 0h-12.1m-8.04 0H1411m-8.06 0h-12.08m-8.06 0h-12.1m-8.04 0h-12.1m-8.05 0h-12.07m-8.06 0h-12.08m-8.07 0h-12.1m-8.04 0H1270m-8.06 0h-12.08m-8.06 0h-12.1m-8.04 0h-12.1m-8.05 0h-12.07m-8.06 0h-12.08m-8.07 0h-12.1m-8.04 0H1129m-8.06 0h-12.08m-8.06 0h-12.1m-8.04 0h-12.1m-8.05 0h-12.07m-8.06 0h-12.08m-8.07 0h-12.1m-8.04 0H988m-8.06 0h-12.08m-8.06 0h-12.1m-8.04 0h-6.05v-6m0-8v-12.02m0-8v-12.02m0-8v-12.02m0-8v-12.03m0-8v-12.02m0-8v-12.02m0-8v-12m0-8.02v-12m0-8.02v-12m0-8.02v-12.02m0-8v-12.02m0-8v-12.02m0-8v-12.02m0-8v-12.02m0-8V3854m0-8v-6h6.06" stroke="#000" stroke-width="4" fill="none"/><use xlink:href="#r" transform="matrix(1,0,0,1,941.6141112936245,3848) translate(271.16015625 25.833333333333336)"/><path d="M1003.6 3904.1h242.5v234h-242.5z" stroke="#000" stroke-width="2" fill="#fff"/><use xlink:href="#s" transform="matrix(1,0,0,1,1011.6141112936245,3912.090277777778) translate(72.46327039930557 117.16460503472223)"/><path d="M1326.1 3904.1h242.5v234h-242.5z" stroke="#000" stroke-width="2" fill="#fff"/><use xlink:href="#t" transform="matrix(1,0,0,1,1334.1141112936245,3912.090277777778) translate(94.69949001736111 117.16460503472223)"/><path d="M1728.25 3522.65V3798a12 12 0 0 1-12 12h-579.4a12 12 0 0 0-12 12v58.35" stroke="#333" stroke-width="4" fill="none"/><path d="M1730.22 3522.7h-3.94v-2.05h3.94z" stroke="#333" stroke-width=".05" fill="#333"/><path d="M1124.86 3896.62l-4.63-14.27h9.27z" stroke="#333" stroke-width="4" fill="#333"/><path d="M1728.25 3522.65V3798a12 12 0 0 1-12 12h-186.9a12 12 0 0 0-12 12v58.35" stroke="#333" stroke-width="4" fill="none"/><path d="M1730.22 3522.7h-3.94v-2.05h3.94z" stroke="#333" stroke-width=".05" fill="#333"/><path d="M1517.36 3896.62l-4.63-14.27h9.27z" stroke="#333" stroke-width="4" fill="#333"/><path d="M1285.75 3522.65V3728a12 12 0 0 0 12 12h137.6a12 12 0 0 1 12 12v128.35" stroke="#333" stroke-width="4" fill="none"/><path d="M1287.72 3522.7h-3.94v-2.05h3.94z" stroke="#333" stroke-width=".05" fill="#333"/><path d="M1447.36 3896.62l-4.63-14.27h9.27z" stroke="#333" stroke-width="4" fill="#333"/><path d="M1003.75 2788v210a12 12 0 0 0 12 12H2468a12 12 0 0 1 12 12v897a12 12 0 0 1-12 12h-875.65" stroke="#333" stroke-width="4" fill="none"/><path d="M1005.73 2788.05h-3.96V2786h3.96z" stroke="#333" stroke-width=".05" fill="#333"/><path d="M1576.1 3931l14.25-4.64v9.28z" stroke="#333" stroke-width="4" fill="#333"/><path d="M1446.25 2788v180a12 12 0 0 0 12 12H2508a12 12 0 0 1 12 12v954a12 12 0 0 1-12 12h-915.65" stroke="#333" stroke-width="4" fill="none"/><path d="M1448.22 2788.05h-3.94V2786h3.94z" stroke="#333" stroke-width=".05" fill="#333"/><path d="M1576.1 3958l14.25-4.64v9.28z" stroke="#333" stroke-width="4" fill="#333"/><path d="M561.25 2788v970a12 12 0 0 0 12 12H1368a12 12 0 0 1 12 12v98.35" stroke="#333" stroke-width="4" fill="none"/><path d="M563.23 2788.05h-3.96V2786h3.96z" stroke="#333" stroke-width=".05" fill="#333"/><path d="M1380 3896.62l-4.63-14.27h9.27z" stroke="#333" stroke-width="4" fill="#333"/><path d="M632.36 2035.1V2358a12 12 0 0 0 12 12H2548a12 12 0 0 1 12 12v1595.5a12 12 0 0 1-12 12h-955.65" stroke="#333" stroke-width="4" fill="none"/><path d="M634.34 2035.14h-3.95v-2.05h3.94z" stroke="#333" stroke-width=".05" fill="#333"/><path d="M1576.1 3989.5l14.25-4.64v9.28z" stroke="#333" stroke-width="4" fill="#333"/><path d="M191.84 2417.92l.13 1.65.37 1.53.6 1.45.82 1.34 1.02 1.18 1.2 1.03 1.34.83 1.45.6 1.53.37 1.64.13h2386.14l2.1.16 2.14.5 2.03.84 1.87 1.15 1.67 1.4 1.4 1.68 1.16 1.87.84 2.03.5 2.13.17 2.12v1567.25l-.16 2.1-.5 2.14-.84 2.04-1.15 1.87-1.4 1.68-1.68 1.42-1.87 1.15-2.03.84-2.13.5-2.12.16h-995.73v-3.95h995.57l1.65-.1 1.53-.38 1.45-.6 1.34-.82 1.18-1.02 1.03-1.2.83-1.34.6-1.45.37-1.54.13-1.65V2442.1l-.13-1.65-.37-1.53-.6-1.45-.82-1.34-1.02-1.18-1.2-1.03-1.33-.83-1.45-.6-1.53-.37-1.65-.13H201.8l-2.12-.16-2.14-.5-2.02-.84-1.87-1.15-1.67-1.4-1.43-1.68-1.14-1.87-.83-2.03-.5-2.13-.18-2.12v-383h3.94z" stroke="#333" stroke-width=".05" fill="#333"/><path d="M191.84 2035.14h-3.95v-2.05h3.94z" fill="#333"/><path stroke="#333" stroke-width=".05" fill="#333"/><path d="M1590.35 4025.73l-14.26-4.64 14.25-4.64z" fill="#333"/><path d="M1592.33 4028.44l-22.63-7.35 22.63-7.36zm-9.85-7.35l5.9 1.9v-3.83z" stroke="#333" stroke-width=".05" fill="#333"/><path d="M1074.86 2035.1V2308a12 12 0 0 0 12 12H2628a12 12 0 0 1 12 12v1707a12 12 0 0 1-12 12H1592.35" stroke="#333" stroke-width="4" fill="none"/><path d="M1076.84 2035.14h-3.95v-2.05h3.94z" stroke="#333" stroke-width=".05" fill="#333"/><path d="M1576.1 4051l14.25-4.64v9.28z" stroke="#333" stroke-width="4" fill="#333"/><path d="M1517.36 2035.1v218.43a12 12 0 0 0 12 12H2668a12 12 0 0 1 12 12V4066.5a12 12 0 0 1-12 12H1592.35" stroke="#333" stroke-width="4" fill="none"/><path d="M1519.34 2035.14h-3.95v-2.05h3.94z" stroke="#333" stroke-width=".05" fill="#333"/><path d="M1576.1 4078.5l14.25-4.64v9.28z" stroke="#333" stroke-width="4" fill="#333"/><path d="M1959.86 2035.1V2198a12 12 0 0 0 12 12H2708a12 12 0 0 1 12 12v1871a12 12 0 0 1-12 12H1592.35" stroke="#333" stroke-width="4" fill="none"/><path d="M1961.84 2035.14h-3.95v-2.05h3.94z" stroke="#333" stroke-width=".05" fill="#333"/><path d="M1576.1 4105l14.25-4.64v9.28z" stroke="#333" stroke-width="4" fill="#333"/><path d="M933.6 3840h705v320.35h-705z" fill-opacity="0"/><path d="M947.7 3840h12.1m8.06 0h12.08m8.06 0h12.1m8.04 0h12.1m8.05 0h12.07m8.06 0h12.08m8.07 0h12.1m8.04 0h12.1m8.06 0h12.08m8.06 0h12.1m8.04 0h12.1m8.05 0h12.07m8.06 0h12.08m8.07 0h12.1m8.04 0h12.1m8.06 0h12.08m8.06 0h12.1m8.04 0h12.1m8.05 0h12.07m8.06 0h12.08m8.07 0h12.1m8.04 0h12.1m8.06 0h12.08m8.06 0h12.1m8.04 0h12.1m8.05 0h12.07m8.06 0h12.08m8.07 0h12.1m8.04 0h12.1m8.06 0h12.08m8.06 0h12.1m8.04 0h12.1m8.05 0h12.07m8.06 0h12.08m8.07 0h6.04v6m0 8v12.03m0 8v12.02m0 8v12.02m0 8v12.02m0 8v12m0 8.02v12.02m0 8v12.02m0 8v12.02m0 8v12.02m0 8v12.02m0 8v12.03m0 8v12.02m0 8v12.02m0 8v12m0 8.02v12m0 8.02v6h-6.03m-8.06 0h-12.07m-8.06 0h-12.08m-8.07 0h-12.1m-8.04 0H1552m-8.06 0h-12.08m-8.06 0h-12.1m-8.04 0h-12.1m-8.05 0h-12.07m-8.06 0h-12.08m-8.07 0h-12.1m-8.04 0H1411m-8.06 0h-12.08m-8.06 0h-12.1m-8.04 0h-12.1m-8.05 0h-12.07m-8.06 0h-12.08m-8.07 0h-12.1m-8.04 0H1270m-8.06 0h-12.08m-8.06 0h-12.1m-8.04 0h-12.1m-8.05 0h-12.07m-8.06 0h-12.08m-8.07 0h-12.1m-8.04 0H1129m-8.06 0h-12.08m-8.06 0h-12.1m-8.04 0h-12.1m-8.05 0h-12.07m-8.06 0h-12.08m-8.07 0h-12.1m-8.04 0H988m-8.06 0h-12.08m-8.06 0h-12.1m-8.04 0h-6.05v-6m0-8v-12.02m0-8v-12.02m0-8v-12.02m0-8v-12.03m0-8v-12.02m0-8v-12.02m0-8v-12m0-8.02v-12m0-8.02v-12m0-8.02v-12.02m0-8v-12.02m0-8v-12.02m0-8v-12.02m0-8v-12.02m0-8V3854m0-8v-6h6.06" stroke="#000" stroke-width="4" fill="none"/><use xlink:href="#r" transform="matrix(1,0,0,1,941.6141112936245,3848) translate(271.16015625 25.833333333333336)"/><path d="M1003.6 3904.1h242.5v234h-242.5z" stroke="#000" stroke-width="2" fill="#fff"/><use xlink:href="#s" transform="matrix(1,0,0,1,1011.6141112936245,3912.090277777778) translate(72.46327039930557 117.16460503472223)"/><path d="M1326.1 3904.1h242.5v234h-242.5z" stroke="#000" stroke-width="2" fill="#fff"/><use xlink:href="#t" transform="matrix(1,0,0,1,1334.1141112936245,3912.090277777778) translate(94.69949001736111 117.16460503472223)"/><path d="M1728.25 3522.65V3798a12 12 0 0 1-12 12h-579.4a12 12 0 0 0-12 12v58.35" stroke="#333" stroke-width="4" fill="none"/><path d="M1730.22 3522.7h-3.94v-2.05h3.94z" stroke="#333" stroke-width=".05" fill="#333"/><path d="M1124.86 3896.62l-4.63-14.27h9.27z" stroke="#333" stroke-width="4" fill="#333"/><path d="M1728.25 3522.65V3798a12 12 0 0 1-12 12h-186.9a12 12 0 0 0-12 12v58.35" stroke="#333" stroke-width="4" fill="none"/><path d="M1730.22 3522.7h-3.94v-2.05h3.94z" stroke="#333" stroke-width=".05" fill="#333"/><path d="M1517.36 3896.62l-4.63-14.27h9.27z" stroke="#333" stroke-width="4" fill="#333"/><path d="M1285.75 3522.65V3728a12 12 0 0 0 12 12h137.6a12 12 0 0 1 12 12v128.35" stroke="#333" stroke-width="4" fill="none"/><path d="M1287.72 3522.7h-3.94v-2.05h3.94z" stroke="#333" stroke-width=".05" fill="#333"/><path d="M1447.36 3896.62l-4.63-14.27h9.27z" stroke="#333" stroke-width="4" fill="#333"/><path d="M1003.75 2788v210a12 12 0 0 0 12 12H2468a12 12 0 0 1 12 12v897a12 12 0 0 1-12 12h-875.65" stroke="#333" stroke-width="4" fill="none"/><path d="M1005.73 2788.05h-3.96V2786h3.96z" stroke="#333" stroke-width=".05" fill="#333"/><path d="M1576.1 3931l14.25-4.64v9.28z" stroke="#333" stroke-width="4" fill="#333"/><path d="M1446.25 2788v180a12 12 0 0 0 12 12H2508a12 12 0 0 1 12 12v954a12 12 0 0 1-12 12h-915.65" stroke="#333" stroke-width="4" fill="none"/><path d="M1448.22 2788.05h-3.94V2786h3.94z" stroke="#333" stroke-width=".05" fill="#333"/><path d="M1576.1 3958l14.25-4.64v9.28z" stroke="#333" stroke-width="4" fill="#333"/><path d="M561.25 2788v970a12 12 0 0 0 12 12H1368a12 12 0 0 1 12 12v98.35" stroke="#333" stroke-width="4" fill="none"/><path d="M563.23 2788.05h-3.96V2786h3.96z" stroke="#333" stroke-width=".05" fill="#333"/><path d="M1380 3896.62l-4.63-14.27h9.27z" stroke="#333" stroke-width="4" fill="#333"/><path d="M632.36 2035.1V2358a12 12 0 0 0 12 12H2548a12 12 0 0 1 12 12v1595.5a12 12 0 0 1-12 12h-955.65" stroke="#333" stroke-width="4" fill="none"/><path d="M634.34 2035.14h-3.95v-2.05h3.94z" stroke="#333" stroke-width=".05" fill="#333"/><path d="M1576.1 3989.5l14.25-4.64v9.28z" stroke="#333" stroke-width="4" fill="#333"/><path d="M191.84 2417.92l.13 1.65.37 1.53.6 1.45.82 1.34 1.02 1.18 1.2 1.03 1.34.83 1.45.6 1.53.37 1.64.13h2386.14l2.1.16 2.14.5 2.03.84 1.87 1.15 1.67 1.4 1.4 1.68 1.16 1.87.84 2.03.5 2.13.17 2.12v1567.25l-.16 2.1-.5 2.14-.84 2.04-1.15 1.87-1.4 1.68-1.68 1.42-1.87 1.15-2.03.84-2.13.5-2.12.16h-995.73v-3.95h995.57l1.65-.1 1.53-.38 1.45-.6 1.34-.82 1.18-1.02 1.03-1.2.83-1.34.6-1.45.37-1.54.13-1.65V2442.1l-.13-1.65-.37-1.53-.6-1.45-.82-1.34-1.02-1.18-1.2-1.03-1.33-.83-1.45-.6-1.53-.37-1.65-.13H201.8l-2.12-.16-2.14-.5-2.02-.84-1.87-1.15-1.67-1.4-1.43-1.68-1.14-1.87-.83-2.03-.5-2.13-.18-2.12v-383h3.94z" stroke="#333" stroke-width=".05" fill="#333"/><path d="M191.84 2035.14h-3.95v-2.05h3.94z" fill="#333"/><path stroke="#333" stroke-width=".05" fill="#333"/><path d="M1590.35 4025.73l-14.26-4.64 14.25-4.64z" fill="#333"/><path d="M1592.33 4028.44l-22.63-7.35 22.63-7.36zm-9.85-7.35l5.9 1.9v-3.83z" stroke="#333" stroke-width=".05" fill="#333"/><path d="M1074.86 2035.1V2308a12 12 0 0 0 12 12H2628a12 12 0 0 1 12 12v1707a12 12 0 0 1-12 12H1592.35" stroke="#333" stroke-width="4" fill="none"/><path d="M1076.84 2035.14h-3.95v-2.05h3.94z" stroke="#333" stroke-width=".05" fill="#333"/><path d="M1576.1 4051l14.25-4.64v9.28z" stroke="#333" stroke-width="4" fill="#333"/><path d="M1517.36 2035.1v218.43a12 12 0 0 0 12 12H2668a12 12 0 0 1 12 12V4066.5a12 12 0 0 1-12 12H1592.35" stroke="#333" stroke-width="4" fill="none"/><path d="M1519.34 2035.14h-3.95v-2.05h3.94z" stroke="#333" stroke-width=".05" fill="#333"/><path d="M1576.1 4078.5l14.25-4.64v9.28z" stroke="#333" stroke-width="4" fill="#333"/><path d="M1959.86 2035.1V2198a12 12 0 0 0 12 12H2708a12 12 0 0 1 12 12v1871a12 12 0 0 1-12 12H1592.35" stroke="#333" stroke-width="4" fill="none"/><path d="M1961.84 2035.14h-3.95v-2.05h3.94z" stroke="#333" stroke-width=".05" fill="#333"/><path d="M1576.1 4105l14.25-4.64v9.28z" stroke="#333" stroke-width="4" fill="#333"/><path d="M-260 3560h740v480h-740z" stroke="#000" stroke-width="4" fill="#fff"/><path d="M-180 3800h160v165h-160z" stroke="#000" stroke-width="2" fill="#fff"/><use xlink:href="#u" transform="matrix(1,0,0,1,-172,3808) translate(36.453125 84.20052083333334)"/><path d="M-39.8 3680.9H-98v-3.97h58.2zm317.06 0H239.8v-3.97h37.46z" stroke="#333" stroke-width=".05" fill="#333"/><path d="M-97.95 3680.9H-100v-3.97h2.05z" stroke="#333" stroke-width=".05" fill="#333"/><path d="M293.53 3678.9l-14.27 4.64v-9.27z" fill="#333"/><path d="M299.92 3678.9l-22.63 7.36v-14.7zm-18.68 1.93l5.9-1.92-5.9-1.9z" stroke="#333" stroke-width=".05" fill="#333"/><use xlink:href="#v" transform="matrix(1,0,0,1,-39.798177083333314,3662.776909722222) translate(0.0049999999999954525 25.833333333333336)"/><use xlink:href="#w" transform="matrix(1,0,0,1,-39.798177083333314,3662.776909722222) translate(119.84875 25.833333333333336)"/><path d="M56.44 3581.8h123.3v47.67H56.45z" fill="none"/><use xlink:href="#x" transform="matrix(1,0,0,1,61.440312500000076,3586.8146527777776) translate(0 30.317274305555557)"/><path d="M100 3800h300v160H100z" fill-opacity="0"/><path d="M114 3800h12m8 0h12m8 0h12m8 0h12m8 0h12m8 0h12m8 0h12m8 0h12m8 0h12m8 0h12m8 0h12m8 0h12m8 0h12m8 0h12m8 0h6v6m0 8v12m0 8v12m0 8v12m0 8v12m0 8v12m0 8v12m0 8v12m0 8v6h-6m-8 0h-12m-8 0h-12m-8 0h-12m-8 0h-12m-8 0h-12m-8 0h-12m-8 0h-12m-8 0h-12m-8 0h-12m-8 0h-12m-8 0h-12m-8 0h-12m-8 0h-12m-8 0h-12m-8 0h-6v-6m0-8v-12m0-8v-12m0-8v-12m0-8v-12m0-8v-12m0-8v-12m0-8v-12m0-8v-6h6" stroke="#000" stroke-width="4" fill="none"/><use xlink:href="#y" transform="matrix(1,0,0,1,108,3808) translate(36.70703125 25.833333333333336)"/><path d="M100 3800h300v160H100z" fill-opacity="0"/><path d="M114 3800h12m8 0h12m8 0h12m8 0h12m8 0h12m8 0h12m8 0h12m8 0h12m8 0h12m8 0h12m8 0h12m8 0h12m8 0h12m8 0h12m8 0h6v6m0 8v12m0 8v12m0 8v12m0 8v12m0 8v12m0 8v12m0 8v12m0 8v6h-6m-8 0h-12m-8 0h-12m-8 0h-12m-8 0h-12m-8 0h-12m-8 0h-12m-8 0h-12m-8 0h-12m-8 0h-12m-8 0h-12m-8 0h-12m-8 0h-12m-8 0h-12m-8 0h-12m-8 0h-6v-6m0-8v-12m0-8v-12m0-8v-12m0-8v-12m0-8v-12m0-8v-12m0-8v-12m0-8v-6h6" stroke="#000" stroke-width="4" fill="none"/><g><use xlink:href="#y" transform="matrix(1,0,0,1,108,3808) translate(36.70703125 25.833333333333336)"/></g><path d="M-77.15 3741.97H-98v-3.94h20.85zm41 0h-20.15v-3.94h20.13zm313.4 0h-20.84v-3.94h20.86z" stroke="#333" stroke-width=".05" fill="#333"/><path d="M-97.95 3741.97H-100v-3.94h2.05z" stroke="#333" stroke-width=".05" fill="#333"/><path d="M293.53 3740l-14.27 4.64v-9.28z" fill="#333"/><path d="M299.92 3740l-22.63 7.35v-14.7zm-18.68 1.92l5.9-1.92-5.9-1.92z" stroke="#333" stroke-width=".05" fill="#333"/><g><use xlink:href="#z" transform="matrix(1,0,0,1,-36.165364583333314,3723.8671875) translate(0.0049999999999954525 25.833333333333336)"/><use xlink:href="#w" transform="matrix(1,0,0,1,-36.165364583333314,3723.8671875) translate(112.58312499999998 25.833333333333336)"/></g><defs><path fill="#282c33" d="M49 0l509-1490h400L1480 0h-339l-115-346H497L386 0H49zm524-585h374c-75-213-124-402-192-666-66 268-110 453-182 666" id="A"/><path fill="#282c33" d="M128 418v-1536h295v188h14c41-89 129-202 319-202 248 0 453 193 453 575 0 372-197 576-455 576-183 0-275-108-317-198h-9v597H128zm534-640c156 0 240-139 240-336 0-196-83-334-240-334-154 0-241 131-241 334 0 202 88 336 241 336" id="B"/><path fill="#282c33" d="M428-1490V0H128v-1490h300" id="C"/><path fill="#282c33" d="M128 0v-1118h300V0H128zm150-1264c-91 0-165-68-165-154 0-85 74-154 165-154 90 0 165 69 165 154 0 86-75 154-165 154" id="D"/><path fill="#282c33" d="M628 22C291 22 81-210 81-554c0-346 210-578 547-578 265 0 455 142 497 372l-279 52c-25-116-99-188-215-188-160 0-244 139-244 341 0 200 84 341 244 341 116 0 193-74 217-195l279 51C1085-123 896 22 628 22" id="E"/><path fill="#282c33" d="M440 22C227 22 68-92 68-313c0-250 202-322 422-343 195-21 271-24 271-105 0-95-63-149-175-149-116 0-187 57-211 129l-275-46c57-194 237-305 487-305 240 0 474 108 474 379V0H777v-155h-10C713-51 605 22 440 22zm85-211c140 0 238-93 238-211v-121c-37 26-156 42-222 51-111 16-185 59-185 149 0 87 70 132 169 132" id="F"/><path fill="#282c33" d="M683-1118v229H474v562c0 71 29 104 102 104 23 0 73-7 95-13l43 225C647 9 580 16 520 16 296 16 174-96 174-301v-588H20v-229h154v-266h300v266h209" id="G"/><path fill="#282c33" d="M628 22C291 22 81-210 81-554c0-346 210-578 547-578 336 0 547 232 547 578 0 344-211 576-547 576zm0-236c160 0 242-146 242-341 0-197-82-341-242-341S387-753 387-555c0 195 81 341 241 341" id="H"/><path fill="#282c33" d="M428-647V0H128v-1118h283l4 231c63-156 176-245 348-245 232 0 384 159 384 421V0H847v-659c0-139-76-222-202-222-128 0-217 86-217 234" id="I"/><g id="a"><use transform="matrix(0.013020833333333334,0,0,0.013020833333333334,0,0)" xlink:href="#A"/><use transform="matrix(0.013020833333333334,0,0,0.013020833333333334,19.908854166666668,0)" xlink:href="#B"/><use transform="matrix(0.013020833333333334,0,0,0.013020833333333334,36.71875,0)" xlink:href="#B"/><use transform="matrix(0.013020833333333334,0,0,0.013020833333333334,53.528645833333336,0)" xlink:href="#C"/><use transform="matrix(0.013020833333333334,0,0,0.013020833333333334,60.755208333333336,0)" xlink:href="#D"/><use transform="matrix(0.013020833333333334,0,0,0.013020833333333334,67.98177083333334,0)" xlink:href="#E"/><use transform="matrix(0.013020833333333334,0,0,0.013020833333333334,83.93229166666669,0)" xlink:href="#F"/><use transform="matrix(0.013020833333333334,0,0,0.013020833333333334,99.41406250000001,0)" xlink:href="#G"/><use transform="matrix(0.013020833333333334,0,0,0.013020833333333334,109.1796875,0)" xlink:href="#D"/><use transform="matrix(0.013020833333333334,0,0,0.013020833333333334,116.40625,0)" xlink:href="#H"/><use transform="matrix(0.013020833333333334,0,0,0.013020833333333334,132.76041666666669,0)" xlink:href="#I"/></g><path fill="#282c33" d="M135 0v-1490h305v1237h643V0H135" id="J"/><path fill="#282c33" d="M120 396l69-226c123 42 245 23 254-107l8-60L31-1118h319c87 288 199 559 259 872 72-308 185-583 277-872h315L726 132c-68 181-186 294-410 294-79 0-153-13-196-30" id="K"/><path fill="#282c33" d="M633 22C291 22 81-200 81-553c0-345 210-579 537-579 292 0 525 185 525 567v84H378c7 183 109 277 260 277 105 0 184-46 216-132l272 51C1071-99 893 22 633 22zM380-669h474c-15-146-94-237-233-237-143 0-229 99-241 237" id="L"/><path fill="#282c33" d="M128 0v-1118h290v195h12c54-169 184-238 367-200v268c-27-8-86-15-130-15-138 0-239 95-239 234V0H128" id="M"/><g id="b"><use transform="matrix(0.013020833333333334,0,0,0.013020833333333334,0,0)" xlink:href="#J"/><use transform="matrix(0.013020833333333334,0,0,0.013020833333333334,15.078125,0)" xlink:href="#F"/><use transform="matrix(0.013020833333333334,0,0,0.013020833333333334,30.104166666666668,0)" xlink:href="#K"/><use transform="matrix(0.013020833333333334,0,0,0.013020833333333334,45.677083333333336,0)" xlink:href="#L"/><use transform="matrix(0.013020833333333334,0,0,0.013020833333333334,61.5625,0)" xlink:href="#M"/></g><path fill="#282c33" d="M786 20C389 20 94-260 94-744c0-487 299-766 692-766 339 0 597 194 641 529h-309c-28-162-156-258-326-258-233 0-388 179-388 495 0 323 157 493 387 493 170 0 298-97 328-259h309c-34 277-266 530-642 530" id="N"/><path fill="#282c33" d="M428-647V0H128v-1490h294v586c65-146 175-228 341-228 232 0 385 159 385 421V0H847v-659c0-139-76-222-202-222-128 0-217 86-217 234" id="O"/><path fill="#282c33" d="M572 22C302 22 117-98 78-306l279-48c29 105 101 156 224 156 114 0 185-48 185-115 0-118-228-130-337-155-215-49-322-150-322-317 0-215 187-347 470-347 265 0 424 116 466 298l-266 47c-24-76-87-130-196-130-98 0-174 46-174 113 0 56 38 95 144 117l201 40c216 44 320 143 320 302 0 220-207 367-500 367" id="P"/><g id="c"><use transform="matrix(0.010959201388888886,0,0,0.010959201388888886,0,0)" xlink:href="#N"/><use transform="matrix(0.010959201388888886,0,0,0.010959201388888886,16.603190104166664,0)" xlink:href="#O"/><use transform="matrix(0.010959201388888886,0,0,0.010959201388888886,30.576171874999993,0)" xlink:href="#F"/><use transform="matrix(0.010959201388888886,0,0,0.010959201388888886,43.60666232638888,0)" xlink:href="#I"/><use transform="matrix(0.010959201388888886,0,0,0.010959201388888886,57.57964409722221,0)" xlink:href="#I"/><use transform="matrix(0.010959201388888886,0,0,0.010959201388888886,71.55262586805554,0)" xlink:href="#L"/><use transform="matrix(0.010959201388888886,0,0,0.010959201388888886,84.92285156249999,0)" xlink:href="#C"/><use transform="matrix(0.010959201388888886,0,0,0.010959201388888886,91.00520833333331,0)" xlink:href="#P"/></g><path fill="#282c33" d="M135 0v-1490h581c339 0 533 192 533 485 0 204-94 351-264 424L1302 0H964L680-532H440V0H135zm305-779h220c186 0 274-77 274-226 0-150-88-233-275-233H440v459" id="Q"/><path fill="#282c33" d="M513 14c-232 0-385-159-385-421v-711h300v659c0 139 76 222 202 222 127 0 217-86 217-234v-647h301V0H864l-4-232C797-74 683 14 513 14" id="R"/><path fill="#282c33" d="M128 0v-1118h278l12 217c60-163 185-234 319-234 143 0 236 81 288 251 63-172 205-251 359-251 205 0 357 138 357 381V0h-301v-697c0-126-76-187-177-187-114 0-184 79-184 196V0H789v-705c0-109-72-179-174-179-106 0-187 74-187 208V0H128" id="S"/><g id="d"><use transform="matrix(0.010959201388888886,0,0,0.010959201388888886,0,0)" xlink:href="#Q"/><use transform="matrix(0.010959201388888886,0,0,0.010959201388888886,14.740125868055552,0)" xlink:href="#R"/><use transform="matrix(0.010959201388888886,0,0,0.010959201388888886,28.713107638888882,0)" xlink:href="#I"/><use transform="matrix(0.010959201388888886,0,0,0.010959201388888886,42.686089409722214,0)" xlink:href="#G"/><use transform="matrix(0.010959201388888886,0,0,0.010959201388888886,50.90549045138888,0)" xlink:href="#D"/><use transform="matrix(0.010959201388888886,0,0,0.010959201388888886,56.98784722222222,0)" xlink:href="#S"/><use transform="matrix(0.010959201388888886,0,0,0.010959201388888886,77.47059461805554,0)" xlink:href="#L"/></g><path fill="#282c33" d="M795 20C377 20 94-272 94-743c0-483 302-767 694-767 335 0 593 206 635 500h-310c-42-142-154-229-320-229-230 0-389 177-389 493s154 495 393 495c212 0 340-120 345-311H818v-232h620v186c0 391-269 628-643 628" id="T"/><path fill="#282c33" d="M361 0L31-1118h315c68 295 127 523 188 845 63-317 128-551 199-845h276c71 296 131 525 196 846 57-321 119-552 186-846h319L1378 0h-305c-73-261-148-486-204-771C813-484 740-261 666 0H361" id="U"/><g id="e"><use transform="matrix(0.010959201388888886,0,0,0.010959201388888886,0,0)" xlink:href="#T"/><use transform="matrix(0.010959201388888886,0,0,0.010959201388888886,16.844292534722218,0)" xlink:href="#F"/><use transform="matrix(0.010959201388888886,0,0,0.010959201388888886,29.874782986111104,0)" xlink:href="#G"/><use transform="matrix(0.010959201388888886,0,0,0.010959201388888886,37.874999999999986,0)" xlink:href="#L"/><use transform="matrix(0.010959201388888886,0,0,0.010959201388888886,50.93836805555554,0)" xlink:href="#U"/><use transform="matrix(0.010959201388888886,0,0,0.010959201388888886,69.96354166666666,0)" xlink:href="#F"/><use transform="matrix(0.010959201388888886,0,0,0.010959201388888886,82.61046006944443,0)" xlink:href="#K"/></g><path fill="#282c33" d="M135 0v-1490h581c339 0 533 210 533 503 0 295-197 500-540 500H440V0H135zm305-733h220c186 0 274-104 274-254s-88-251-275-251H440v505" id="V"/><path fill="#282c33" d="M625 442c-280 0-454-114-503-274l258-72c28 63 97 128 243 128 153 0 246-69 246-216v-206h-23C805-108 717-16 536-16 284-16 81-191 81-561c0-378 208-571 456-571 188 0 280 113 321 202h13v-188h295V-9c0 303-226 451-541 451zm5-686c153 0 240-119 240-319 0-198-86-329-240-329-158 0-241 137-241 329 0 195 85 319 241 319" id="W"/><g id="f"><use transform="matrix(0.010959201388888886,0,0,0.010959201388888886,0,0)" xlink:href="#V"/><use transform="matrix(0.010959201388888886,0,0,0.010959201388888886,14.542860243055552,0)" xlink:href="#C"/><use transform="matrix(0.010959201388888886,0,0,0.010959201388888886,20.625217013888886,0)" xlink:href="#R"/><use transform="matrix(0.010959201388888886,0,0,0.010959201388888886,34.598198784722214,0)" xlink:href="#W"/><use transform="matrix(0.010959201388888886,0,0,0.010959201388888886,48.779405381944436,0)" xlink:href="#D"/><use transform="matrix(0.010959201388888886,0,0,0.010959201388888886,54.86176215277778,0)" xlink:href="#I"/><use transform="matrix(0.010959201388888886,0,0,0.010959201388888886,68.8347439236111,0)" xlink:href="#P"/></g><path fill="#282c33" d="M135 0v-1490h305v602h649v-602h306V0h-306v-635H440V0H135" id="X"/><path fill="#282c33" d="M537 19C279 19 81-185 81-557c0-382 206-575 454-575 190 0 278 113 318 202h10v-560h300V0H868v-179h-15C812-89 719 19 537 19zm92-241c153 0 240-134 240-336 0-203-86-334-240-334-158 0-240 138-240 334 0 197 84 336 240 336" id="Y"/><g id="g"><use transform="matrix(0.010959201388888886,0,0,0.010959201388888886,0,0)" xlink:href="#X"/><use transform="matrix(0.010959201388888886,0,0,0.010959201388888886,16.767578124999996,0)" xlink:href="#F"/><use transform="matrix(0.010959201388888886,0,0,0.010959201388888886,29.798068576388882,0)" xlink:href="#M"/><use transform="matrix(0.010959201388888886,0,0,0.010959201388888886,38.39008246527777,0)" xlink:href="#Y"/><use transform="matrix(0.010959201388888886,0,0,0.010959201388888886,52.53841145833332,0)" xlink:href="#U"/><use transform="matrix(0.010959201388888886,0,0,0.010959201388888886,71.56358506944443,0)" xlink:href="#F"/><use transform="matrix(0.010959201388888886,0,0,0.010959201388888886,84.59407552083331,0)" xlink:href="#M"/><use transform="matrix(0.010959201388888886,0,0,0.010959201388888886,93.1860894097222,0)" xlink:href="#L"/></g><path fill="#282c33" d="M75-1237v-253h1217v253H837V0H531v-1237H75" id="Z"/><path fill="#282c33" d="M750 21c-371 0-615-218-615-544v-967h305v942c0 174 123 299 310 299s309-125 309-299v-942h306v967c0 326-247 544-615 544" id="aa"/><path fill="#282c33" d="M440-1490V0H135v-1490h305" id="ab"/><g id="h"><use transform="matrix(0.010959201388888886,0,0,0.010959201388888886,0,0)" xlink:href="#Z"/><use transform="matrix(0.010959201388888886,0,0,0.010959201388888886,14.981228298611107,0)" xlink:href="#aa"/><use transform="matrix(0.010959201388888886,0,0,0.010959201388888886,31.40907118055555,0)" xlink:href="#ab"/></g><path fill="#282c33" d="M135 0v-1490h997v253H440v360h640v249H440v375h694V0H135" id="ac"/><g id="i"><use transform="matrix(0.013020833333333334,0,0,0.013020833333333334,0,0)" xlink:href="#ac"/><use transform="matrix(0.013020833333333334,0,0,0.013020833333333334,16.197916666666668,0)" xlink:href="#Y"/><use transform="matrix(0.013020833333333334,0,0,0.013020833333333334,33.0078125,0)" xlink:href="#W"/><use transform="matrix(0.013020833333333334,0,0,0.013020833333333334,49.856770833333336,0)" xlink:href="#L"/></g><g id="j"><use transform="matrix(0.010959201388888886,0,0,0.010959201388888886,0,0)" xlink:href="#Z"/><use transform="matrix(0.010959201388888886,0,0,0.010959201388888886,13.227756076388886,0)" xlink:href="#H"/><use transform="matrix(0.010959201388888886,0,0,0.010959201388888886,26.99251302083333,0)" xlink:href="#H"/><use transform="matrix(0.010959201388888886,0,0,0.010959201388888886,40.75726996527777,0)" xlink:href="#C"/><use transform="matrix(0.010959201388888886,0,0,0.010959201388888886,46.8396267361111,0)" xlink:href="#P"/></g><path fill="#282c33" d="M443 0L31-1118h319c90 293 199 572 268 885 66-313 175-593 264-885h315L784 0H443" id="ad"/><g id="k"><use transform="matrix(0.010959201388888886,0,0,0.010959201388888886,0,0)" xlink:href="#V"/><use transform="matrix(0.010959201388888886,0,0,0.010959201388888886,14.542860243055552,0)" xlink:href="#M"/><use transform="matrix(0.010959201388888886,0,0,0.010959201388888886,23.134874131944436,0)" xlink:href="#H"/><use transform="matrix(0.010959201388888886,0,0,0.010959201388888886,36.494140624999986,0)" xlink:href="#ad"/><use transform="matrix(0.010959201388888886,0,0,0.010959201388888886,49.952039930555536,0)" xlink:href="#D"/><use transform="matrix(0.010959201388888886,0,0,0.010959201388888886,56.03439670138888,0)" xlink:href="#Y"/><use transform="matrix(0.010959201388888886,0,0,0.010959201388888886,70.18272569444443,0)" xlink:href="#L"/><use transform="matrix(0.010959201388888886,0,0,0.010959201388888886,83.55295138888887,0)" xlink:href="#M"/><use transform="matrix(0.010959201388888886,0,0,0.010959201388888886,92.6929253472222,0)" xlink:href="#P"/></g><path fill="#282c33" d="M135 0v-1490h468l242 684c30 94 76 293 111 455 34-161 80-360 110-455l238-684h470V0h-307c0-447-3-765 11-1227-122 503-246 788-395 1227H826C676-435 552-717 427-1215c15 453 11 775 11 1215H135" id="ae"/><g id="l"><use transform="matrix(0.010959201388888886,0,0,0.010959201388888886,0,0)" xlink:href="#ae"/><use transform="matrix(0.010959201388888886,0,0,0.010959201388888886,20.910156249999996,0)" xlink:href="#L"/><use transform="matrix(0.010959201388888886,0,0,0.010959201388888886,34.280381944444436,0)" xlink:href="#S"/><use transform="matrix(0.010959201388888886,0,0,0.010959201388888886,54.763129340277764,0)" xlink:href="#H"/><use transform="matrix(0.010959201388888886,0,0,0.010959201388888886,68.5278862847222,0)" xlink:href="#M"/><use transform="matrix(0.010959201388888886,0,0,0.010959201388888886,78.01855468749997,0)" xlink:href="#K"/></g><path fill="#282c33" d="M818-733v240H140v-240h678" id="af"/><g id="m"><use transform="matrix(0.010959201388888886,0,0,0.010959201388888886,0,0)" xlink:href="#Z"/><use transform="matrix(0.010959201388888886,0,0,0.010959201388888886,13.227756076388886,0)" xlink:href="#H"/><use transform="matrix(0.010959201388888886,0,0,0.010959201388888886,26.99251302083333,0)" xlink:href="#H"/><use transform="matrix(0.010959201388888886,0,0,0.010959201388888886,40.75726996527777,0)" xlink:href="#C"/><use transform="matrix(0.010959201388888886,0,0,0.010959201388888886,46.8396267361111,0)" xlink:href="#af"/><use transform="matrix(0.010959201388888886,0,0,0.010959201388888886,57.33854166666665,0)" xlink:href="#N"/><use transform="matrix(0.010959201388888886,0,0,0.010959201388888886,73.94173177083331,0)" xlink:href="#F"/><use transform="matrix(0.010959201388888886,0,0,0.010959201388888886,86.9722222222222,0)" xlink:href="#C"/><use transform="matrix(0.010959201388888886,0,0,0.010959201388888886,93.05457899305553,0)" xlink:href="#C"/><use transform="matrix(0.010959201388888886,0,0,0.010959201388888886,99.13693576388887,0)" xlink:href="#af"/><use transform="matrix(0.010959201388888886,0,0,0.010959201388888886,109.63585069444441,0)" xlink:href="#V"/><use transform="matrix(0.010959201388888886,0,0,0.010959201388888886,123.89377170138886,0)" xlink:href="#F"/><use transform="matrix(0.010959201388888886,0,0,0.010959201388888886,136.92426215277774,0)" xlink:href="#M"/><use transform="matrix(0.010959201388888886,0,0,0.010959201388888886,146.0642361111111,0)" xlink:href="#P"/><use transform="matrix(0.010959201388888886,0,0,0.010959201388888886,158.63444010416663,0)" xlink:href="#L"/><use transform="matrix(0.010959201388888886,0,0,0.010959201388888886,172.00466579861106,0)" xlink:href="#M"/></g><path fill="#282c33" d="M681 22C323 22 94-145 85-462h297c10 151 131 226 296 226 163 0 271-77 271-190 0-102-95-149-257-189l-164-41c-252-61-403-188-403-405 0-269 236-449 560-449 330 0 546 183 551 445H941c-11-119-106-188-259-188-156 0-244 72-244 172-3 156 226 185 373 221 250 61 445 186 445 436 0 271-213 446-575 446" id="ag"/><g id="n"><use transform="matrix(0.013020833333333334,0,0,0.013020833333333334,0,0)" xlink:href="#ag"/><use transform="matrix(0.013020833333333334,0,0,0.013020833333333334,17.4609375,0)" xlink:href="#R"/><use transform="matrix(0.013020833333333334,0,0,0.013020833333333334,34.0625,0)" xlink:href="#B"/><use transform="matrix(0.013020833333333334,0,0,0.013020833333333334,50.872395833333336,0)" xlink:href="#B"/><use transform="matrix(0.013020833333333334,0,0,0.013020833333333334,67.68229166666667,0)" xlink:href="#H"/><use transform="matrix(0.013020833333333334,0,0,0.013020833333333334,84.03645833333334,0)" xlink:href="#M"/><use transform="matrix(0.013020833333333334,0,0,0.013020833333333334,95.41666666666667,0)" xlink:href="#G"/></g><path fill="#282c33" d="M750-1118v229H516V0H217v-889H20v-229h197v-86c0-238 156-356 363-356 94 0 178 20 215 31l-54 226c-25-7-61-15-100-15-123-3-131 84-125 200h234" id="ah"/><g id="o"><use transform="matrix(0.010959201388888886,0,0,0.010959201388888886,0,0)" xlink:href="#N"/><use transform="matrix(0.010959201388888886,0,0,0.010959201388888886,16.603190104166664,0)" xlink:href="#H"/><use transform="matrix(0.010959201388888886,0,0,0.010959201388888886,30.36794704861111,0)" xlink:href="#I"/><use transform="matrix(0.010959201388888886,0,0,0.010959201388888886,44.340928819444436,0)" xlink:href="#ah"/><use transform="matrix(0.010959201388888886,0,0,0.010959201388888886,53.458984375,0)" xlink:href="#D"/><use transform="matrix(0.010959201388888886,0,0,0.010959201388888886,59.54134114583333,0)" xlink:href="#W"/></g><g id="p"><use transform="matrix(0.010959201388888886,0,0,0.010959201388888886,0,0)" xlink:href="#ab"/><use transform="matrix(0.010959201388888886,0,0,0.010959201388888886,6.30154079861111,0)" xlink:href="#I"/><use transform="matrix(0.010959201388888886,0,0,0.010959201388888886,20.27452256944444,0)" xlink:href="#ah"/><use transform="matrix(0.010959201388888886,0,0,0.010959201388888886,29.206271701388882,0)" xlink:href="#M"/><use transform="matrix(0.010959201388888886,0,0,0.010959201388888886,38.03938802083332,0)" xlink:href="#F"/></g><g id="q"><use transform="matrix(0.010959201388888886,0,0,0.010959201388888886,0,0)" xlink:href="#J"/><use transform="matrix(0.010959201388888886,0,0,0.010959201388888886,12.69075520833333,0)" xlink:href="#H"/><use transform="matrix(0.010959201388888886,0,0,0.010959201388888886,26.45551215277777,0)" xlink:href="#W"/></g><path fill="#282c33" d="M135 0v-1490h980v253H440v416h609v249H440V0H135" id="ai"/><g id="r"><use transform="matrix(0.013020833333333334,0,0,0.013020833333333334,0,0)" xlink:href="#ai"/><use transform="matrix(0.013020833333333334,0,0,0.013020833333333334,14.8828125,0)" xlink:href="#H"/><use transform="matrix(0.013020833333333334,0,0,0.013020833333333334,31.236979166666675,0)" xlink:href="#R"/><use transform="matrix(0.013020833333333334,0,0,0.013020833333333334,47.83854166666667,0)" xlink:href="#I"/><use transform="matrix(0.013020833333333334,0,0,0.013020833333333334,64.44010416666667,0)" xlink:href="#Y"/><use transform="matrix(0.013020833333333334,0,0,0.013020833333333334,81.25,0)" xlink:href="#F"/><use transform="matrix(0.013020833333333334,0,0,0.013020833333333334,96.73177083333333,0)" xlink:href="#G"/><use transform="matrix(0.013020833333333334,0,0,0.013020833333333334,106.49739583333333,0)" xlink:href="#D"/><use transform="matrix(0.013020833333333334,0,0,0.013020833333333334,113.72395833333334,0)" xlink:href="#H"/><use transform="matrix(0.013020833333333334,0,0,0.013020833333333334,130.078125,0)" xlink:href="#I"/></g><g id="s"><use transform="matrix(0.010959201388888886,0,0,0.010959201388888886,0,0)" xlink:href="#ae"/><use transform="matrix(0.010959201388888886,0,0,0.010959201388888886,20.910156249999996,0)" xlink:href="#F"/><use transform="matrix(0.010959201388888886,0,0,0.010959201388888886,33.940646701388886,0)" xlink:href="#E"/><use transform="matrix(0.010959201388888886,0,0,0.010959201388888886,47.146484374999986,0)" xlink:href="#M"/><use transform="matrix(0.010959201388888886,0,0,0.010959201388888886,55.73849826388888,0)" xlink:href="#H"/><use transform="matrix(0.010959201388888886,0,0,0.010959201388888886,69.50325520833331,0)" xlink:href="#P"/></g><g id="t"><use transform="matrix(0.010959201388888886,0,0,0.010959201388888886,0,0)" xlink:href="#A"/><use transform="matrix(0.010959201388888886,0,0,0.010959201388888886,16.756618923611107,0)" xlink:href="#V"/><use transform="matrix(0.010959201388888886,0,0,0.010959201388888886,31.29947916666666,0)" xlink:href="#ab"/></g><g id="u"><use transform="matrix(0.013020833333333334,0,0,0.013020833333333334,0,0)" xlink:href="#N"/><use transform="matrix(0.013020833333333334,0,0,0.013020833333333334,19.7265625,0)" xlink:href="#M"/><use transform="matrix(0.013020833333333334,0,0,0.013020833333333334,30.221354166666668,0)" xlink:href="#F"/><use transform="matrix(0.013020833333333334,0,0,0.013020833333333334,45.703125,0)" xlink:href="#G"/><use transform="matrix(0.013020833333333334,0,0,0.013020833333333334,55.208333333333336,0)" xlink:href="#L"/></g><path fill="#282c33" d="M180 0v-1490h510c348 0 508 194 508 460 0 198-88 351-276 417L1256 0h-220L726-579c-117 2-238 0-356 1V0H180zm190-747h312c235 0 327-108 327-283 0-177-92-293-329-293H370v576" id="aj"/><path fill="#282c33" d="M628 24c-324 0-524-230-524-574 0-343 198-582 503-582 237 0 487 146 487 559v75H286c9 234 145 362 343 362 132 0 231-58 273-172l174 48C1024-91 857 24 628 24zM287-650h624c-17-190-120-322-304-322-192 0-309 151-320 322" id="ak"/><path fill="#282c33" d="M1096 418H916v-591h-14C865-111 790 24 577 24c-279 0-473-224-473-580 0-354 195-576 474-576 218 0 287 134 324 193h20v-179h174V418zM604-137c203 0 314-172 314-421 0-247-108-413-314-413-212 0-317 181-317 413 0 235 108 421 317 421" id="al"/><path fill="#282c33" d="M537 14c-226 0-379-139-379-422v-710h180v695c0 172 97 275 253 275 160 0 281-109 281-300v-670h181V0H879v-209C806-46 684 14 537 14" id="am"/><path fill="#282c33" d="M158 0v-1118h180V0H158zm91-1301c-68 0-125-53-125-119s57-119 125-119c69 0 126 53 126 119s-57 119-126 119" id="an"/><path fill="#282c33" d="M158 0v-1118h174v172h12c41-113 157-188 290-188 26 0 70 2 91 3v181c-11-2-60-10-108-10-161 0-279 109-279 260V0H158" id="ao"/><path fill="#282c33" d="M577 24c-279 0-473-224-473-580 0-354 195-576 474-576 218 0 287 134 324 193h14v-551h180V0H922v-173h-20C865-111 790 24 577 24zm27-161c203 0 314-172 314-421 0-247-108-413-314-413-212 0-317 181-317 413 0 235 108 421 317 421" id="ap"/><g id="v"><use transform="matrix(0.013020833333333334,0,0,0.013020833333333334,0,0)" xlink:href="#aj"/><use transform="matrix(0.013020833333333334,0,0,0.013020833333333334,16.770833333333336,0)" xlink:href="#ak"/><use transform="matrix(0.013020833333333334,0,0,0.013020833333333334,32.317708333333336,0)" xlink:href="#al"/><use transform="matrix(0.013020833333333334,0,0,0.013020833333333334,48.645833333333336,0)" xlink:href="#am"/><use transform="matrix(0.013020833333333334,0,0,0.013020833333333334,64.4140625,0)" xlink:href="#an"/><use transform="matrix(0.013020833333333334,0,0,0.013020833333333334,70.87239583333333,0)" xlink:href="#ao"/><use transform="matrix(0.013020833333333334,0,0,0.013020833333333334,80.46875,0)" xlink:href="#ak"/><use transform="matrix(0.013020833333333334,0,0,0.013020833333333334,96.015625,0)" xlink:href="#ap"/></g><path fill="#282c33" d="M645 0H180v-1490h484c435 0 692 280 692 742 0 466-257 748-711 748zM370-168h263c363 0 539-218 539-580 0-358-176-574-521-574H370v1154" id="aq"/><path fill="#282c33" d="M158 418v-1536h174v179h20c37-59 106-193 324-193 279 0 474 222 474 576 0 356-194 580-473 580-213 0-288-135-325-197h-14v591H158zm492-555c209 0 317-186 317-421 0-232-105-413-317-413-206 0-314 166-314 413 0 249 111 421 314 421" id="ar"/><path fill="#282c33" d="M338-670V0H158v-1118h173l1 207c72-158 192-221 342-221 226 0 378 139 378 422V0H872v-695c0-172-96-275-252-275-161 0-282 109-282 300" id="as"/><path fill="#282c33" d="M613 24c-304 0-509-231-509-576 0-350 205-580 509-580 216 0 392 114 453 309l-173 49c-33-115-133-197-280-197-223 0-326 196-326 419 0 220 103 415 326 415 150 0 252-85 285-206l172 49C1010-95 832 24 613 24" id="at"/><path fill="#282c33" d="M140 405l46-156c120 36 205 19 263-150l32-93L54-1118h197c107 313 237 620 324 950 87-331 219-637 326-950h196L606 167c-68 178-176 259-334 259-64 0-113-12-132-21" id="au"/><g id="w"><use transform="matrix(0.013020833333333334,0,0,0.013020833333333334,0,0)" xlink:href="#aq"/><use transform="matrix(0.013020833333333334,0,0,0.013020833333333334,19.244791666666668,0)" xlink:href="#ak"/><use transform="matrix(0.013020833333333334,0,0,0.013020833333333334,34.79166666666667,0)" xlink:href="#ar"/><use transform="matrix(0.013020833333333334,0,0,0.013020833333333334,51.11979166666667,0)" xlink:href="#ak"/><use transform="matrix(0.013020833333333334,0,0,0.013020833333333334,66.66666666666667,0)" xlink:href="#as"/><use transform="matrix(0.013020833333333334,0,0,0.013020833333333334,82.421875,0)" xlink:href="#ap"/><use transform="matrix(0.013020833333333334,0,0,0.013020833333333334,98.75,0)" xlink:href="#ak"/><use transform="matrix(0.013020833333333334,0,0,0.013020833333333334,114.296875,0)" xlink:href="#as"/><use transform="matrix(0.013020833333333334,0,0,0.013020833333333334,130.05208333333334,0)" xlink:href="#at"/><use transform="matrix(0.013020833333333334,0,0,0.013020833333333334,144.765625,0)" xlink:href="#au"/></g><g id="x"><use transform="matrix(0.015190972222222222,0,0,0.015190972222222222,0,0)" xlink:href="#J"/><use transform="matrix(0.015190972222222222,0,0,0.015190972222222222,17.591145833333332,0)" xlink:href="#L"/><use transform="matrix(0.015190972222222222,0,0,0.015190972222222222,36.12413194444444,0)" xlink:href="#W"/><use transform="matrix(0.015190972222222222,0,0,0.015190972222222222,55.78125,0)" xlink:href="#L"/><use transform="matrix(0.015190972222222222,0,0,0.015190972222222222,74.31423611111111,0)" xlink:href="#I"/><use transform="matrix(0.015190972222222222,0,0,0.015190972222222222,93.68272569444444,0)" xlink:href="#Y"/></g><path fill="#282c33" d="M768-1560L288 224H28l480-1784h260" id="av"/><g id="y"><use transform="matrix(0.013020833333333334,0,0,0.013020833333333334,0,0)" xlink:href="#N"/><use transform="matrix(0.013020833333333334,0,0,0.013020833333333334,19.7265625,0)" xlink:href="#H"/><use transform="matrix(0.013020833333333334,0,0,0.013020833333333334,36.08072916666667,0)" xlink:href="#I"/><use transform="matrix(0.013020833333333334,0,0,0.013020833333333334,52.68229166666667,0)" xlink:href="#G"/><use transform="matrix(0.013020833333333334,0,0,0.013020833333333334,62.578125,0)" xlink:href="#F"/><use transform="matrix(0.013020833333333334,0,0,0.013020833333333334,78.05989583333334,0)" xlink:href="#D"/><use transform="matrix(0.013020833333333334,0,0,0.013020833333333334,85.28645833333334,0)" xlink:href="#I"/><use transform="matrix(0.013020833333333334,0,0,0.013020833333333334,101.88802083333334,0)" xlink:href="#L"/><use transform="matrix(0.013020833333333334,0,0,0.013020833333333334,117.7734375,0)" xlink:href="#M"/><use transform="matrix(0.013020833333333334,0,0,0.013020833333333334,127.8125,0)" xlink:href="#av"/><use transform="matrix(0.013020833333333334,0,0,0.013020833333333334,138.1640625,0)" xlink:href="#J"/><use transform="matrix(0.013020833333333334,0,0,0.013020833333333334,153.2421875,0)" xlink:href="#F"/><use transform="matrix(0.013020833333333334,0,0,0.013020833333333334,168.26822916666669,0)" xlink:href="#K"/><use transform="matrix(0.013020833333333334,0,0,0.013020833333333334,183.84114583333334,0)" xlink:href="#L"/><use transform="matrix(0.013020833333333334,0,0,0.013020833333333334,199.7265625,0)" xlink:href="#M"/></g><path fill="#282c33" d="M784 20c-382 0-662-292-662-764 0-473 280-766 662-766s660 293 660 766c0 472-278 764-660 764zm0-176c266 0 475-207 475-588 0-383-209-590-475-590-268 0-477 208-477 590 0 380 209 588 477 588" id="aw"/><path fill="#282c33" d="M598-1118v154H368v674c0 100 37 144 132 144 23 0 62-6 92-12L629-6c-37 13-88 20-134 20-193 0-307-107-307-290v-688H20v-154h168v-266h180v266h230" id="ax"/><path fill="#282c33" d="M613 24c-304 0-509-231-509-576 0-350 205-580 509-580 305 0 511 230 511 580 0 345-206 576-511 576zm0-161c226 0 329-195 329-415 0-222-103-419-329-419-223 0-326 196-326 419 0 220 103 415 326 415" id="ay"/><path fill="#282c33" d="M471 26C259 26 90-98 90-318c0-256 228-303 435-329 202-27 287-16 287-108 0-139-79-219-234-219-161 0-248 86-283 164l-173-57c86-203 278-265 451-265 150 0 419 46 419 395V0H815v-152h-12C765-73 660 26 471 26zm31-159c199 0 310-134 310-271v-155c-30 35-226 55-295 64-131 17-246 59-246 186 0 116 97 176 231 176" id="az"/><path fill="#282c33" d="M338-1490V0H158v-1490h180" id="aA"/><g id="z"><use transform="matrix(0.013020833333333334,0,0,0.013020833333333334,0,0)" xlink:href="#aw"/><use transform="matrix(0.013020833333333334,0,0,0.013020833333333334,20.390625,0)" xlink:href="#ar"/><use transform="matrix(0.013020833333333334,0,0,0.013020833333333334,36.71875,0)" xlink:href="#ax"/><use transform="matrix(0.013020833333333334,0,0,0.013020833333333334,45.442708333333336,0)" xlink:href="#an"/><use transform="matrix(0.013020833333333334,0,0,0.013020833333333334,51.90104166666667,0)" xlink:href="#ay"/><use transform="matrix(0.013020833333333334,0,0,0.013020833333333334,67.890625,0)" xlink:href="#as"/><use transform="matrix(0.013020833333333334,0,0,0.013020833333333334,83.64583333333333,0)" xlink:href="#az"/><use transform="matrix(0.013020833333333334,0,0,0.013020833333333334,98.61979166666666,0)" xlink:href="#aA"/></g></defs></g></svg>